<svg fill="none" height="20" viewBox="0 0 16 20" width="16" xmlns="http://www.w3.org/2000/svg"><g fill="currentColor"><path d="m12.7216 5.84184c1.1663 0 2.1411.90206 2.2673 2.09823l.4393 4.16273c.0329.3118-.192.5917-.5036.6267-.3145.0353-.5976-.1922-.6309-.507l-.4384-4.15507c-.0631-.59809-.5504-1.04912-1.1337-1.04912h-.7266v1.48463c0 .32486-.2553.58824-.5701.58824-.3149 0-.5702-.26338-.5702-.58824v-1.48463h-3.60893c-.31488 0-.57017-.26338-.57017-.58824 0-.32485.25529-.58823.57017-.58823h3.60893v-1.72022c0-1.6239-1.28059-2.94507-2.8546-2.94507-1.57409 0-2.85469 1.32117-2.85469 2.94507v4.38132c0 .32486-.25529.58824-.57016.58824-.31488 0-.57017-.26338-.57017-.58824v-1.48463h-.72661c-.58314 0-1.07048.4511-1.13363 1.04919l-.99743 9.4523c-.07363.6966.45342 1.3038 1.13363 1.3038h11.43816c.6792 0 1.2072-.6062 1.1335-1.3039l-.0318-.3016c-.0318-.3015.1778-.5752.4771-.6231.3229-.0516.623.1782.6573.5034l.0311.294c.147 1.3933-.9129 2.6077-2.2673 2.6076h-11.43813c-1.355931 0-2.41416-1.2161-2.2673417-2.6076l.9974317-9.45233c.1263-1.19625 1.10107-2.09831 2.26734-2.09831h.72661v-1.72022c0-2.27257 1.79217-4.12154 3.99501-4.12154 2.20278 0 3.99498 1.8489 3.99498 4.12154v1.7203z"/><path d="m12.7763 11.6775c0-.3742-.3033-.6775-.6775-.6775s-.6776.3033-.6776.6775v2.1225h-2.01008c-.3866 0-.7.3134-.7.7s.3134.7.7.7h2.01008v2.1225c0 .3742.3034.6775.6776.6775s.6775-.3033.6775-.6775v-2.1225h2.0101c.3866 0 .7-.3134.7-.7s-.3134-.7-.7-.7h-2.0101z"/></g></svg>