<svg fill="none" height="20" viewBox="0 0 17 20" width="17" xmlns="http://www.w3.org/2000/svg"><path d="m16.5165 17.3924-1.0305-9.45233c-.1304-1.19617-1.1375-2.09823-2.3425-2.09823h-.7507v-1.7203c0-2.27264-1.8516-4.12154-4.12747-4.12154-2.27589 0-4.1275 1.84897-4.1275 4.12154v1.72022h-.7507c-1.20496 0-2.21206.90206-2.34254 2.09831l-1.0305097 9.45233c-.1516873 1.3915.9416357 2.6076 2.3425297 2.6076h11.81749c1.3993.0001 2.4943-1.2143 2.3424-2.6076zm-2.3424 1.4312h-11.81742c-.70276 0-1.24729-.6072-1.17122-1.3038l1.03051-9.4523c.06524-.59809.56875-1.04919 1.17123-1.04919h.7507v1.48463c0 .32486.26376.58824.58908.58824.32531 0 .58907-.26338.58907-.58824v-4.38132c0-1.6239 1.32307-2.94507 2.94936-2.94507 1.62621 0 2.94929 1.32117 2.94929 2.94507v1.72022h-3.72864c-.32532 0-.58908.26338-.58908.58823 0 .32486.26376.58824.58908.58824h3.72864v1.48463c0 .32486.2637.58824.5891.58824.3253 0 .589-.26338.589-.58824v-1.48463h.7507c.6026 0 1.1061.45103 1.1713 1.04912l1.0305 9.45227c.0761.6977-.4694 1.3039-1.1712 1.3039z" fill="currentColor"/></svg>