<svg fill="none" height="12" viewBox="0 0 12 12" width="12" xmlns="http://www.w3.org/2000/svg"><path d="m6.66294 6.00001 5.19976-5.19978c.1831-.18307.1831-.479881 0-.662928-.1831-.183046-.4799-.1830695-.6629 0l-5.19981 5.199778-5.19976-5.199778c-.18307-.1830695-.479881-.1830695-.662928 0-.183046.18307-.1830694.479882 0 .662928l5.199758 5.19976-5.199758 5.19981c-.1830694.183-.1830694.4799 0 .6629.091523.0915.2115.1373.331476.1373s.239929-.0458.331476-.1373l5.199736-5.19976 5.19971 5.19976c.0916.0915.2115.1373.3315.1373s.24-.0458.3315-.1373c.1831-.1831.1831-.4799 0-.6629z" fill="currentColor"/></svg>