<svg fill="none" height="16" viewBox="0 0 17 16" width="17" xmlns="http://www.w3.org/2000/svg"><path clip-rule="evenodd" d="m1.95833 2.58333h-1.70833v-.83334h1.70833c.09563-.47095.35114-.894361.72323-1.198488.37209-.304126.83787-.4702642 1.31844-.4702642.48056 0 .94635.1661382 1.31844.4702642.37209.304127.62759.727538.72323 1.198488h10.87503v.83334h-10.87503c-.09564.47095-.35114.89436-.72323 1.19849-.37209.30412-.83788.47026-1.31844.47026-.48057 0-.94635-.16614-1.31844-.47026-.37209-.30413-.6276-.72754-.72323-1.19849zm2.04167.83333c.33152 0 .64946-.1317.88388-.36612s.36612-.55236.36612-.88388-.1317-.64946-.36612-.88388-.55236-.36612-.88388-.36612-.64946.1317-.88388.36612-.36612.55236-.36612.88388.1317.64946.36612.88388.55236.36612.88388.36612zm6.2917 5h-10.0417v-.83333h10.0417c.0956-.47096.3511-.89437.7232-1.19849.3721-.30413.8379-.47027 1.3184-.47027.4806 0 .9464.16614 1.3185.47027.3721.30412.6276.72753.7232 1.19849h2.5417v.83333h-2.5417c-.0956.47095-.3511.89436-.7232 1.19849s-.8379.47025-1.3185.47025c-.4805 0-.9463-.16612-1.3184-.47025s-.6276-.72754-.7232-1.19849zm2.0416.83333c.3316 0 .6495-.13169.8839-.36611s.3661-.55237.3661-.88389-.1317-.64946-.3661-.88388-.5523-.36612-.8839-.36612c-.3315 0-.6494.1317-.8839.36612-.2344.23442-.3661.55236-.3661.88388s.1317.64947.3661.88389c.2345.23442.5524.36611.8839.36611zm-7.04163 5.00001h-5.04167v-.8333h5.04167c.09563-.471.35113-.8944.72322-1.1985.37209-.3042.83788-.4703 1.31844-.4703.48057 0 .94636.1661 1.31844.4703.37209.3041.6276.7275.72323 1.1985h7.5417v.8333h-7.5417c-.09563.4709-.35114.8944-.72323 1.1985-.37208.3041-.83787.4702-1.31844.4702-.48056 0-.94635-.1661-1.31844-.4702s-.62759-.7276-.72322-1.1985zm2.04166.8333c.33152 0 .64947-.1317.88389-.3661s.36611-.5524.36611-.8839-.13169-.6494-.36611-.8839c-.23442-.2344-.55237-.3661-.88389-.3661s-.64946.1317-.88388.3661c-.23442.2345-.36612.5524-.36612.8839s.1317.6495.36612.8839.55236.3661.88388.3661z" fill="currentColor" fill-rule="evenodd"/></svg>