<svg fill="none" height="18" viewBox="0 0 20 18" width="20" xmlns="http://www.w3.org/2000/svg"><path d="m18.5408 1.76821c-.9865-1.140259-2.3549-1.76821-3.8533-1.76821-2.1073 0-3.4415 1.28217-4.1896 2.3578-.1941.27912-.3593.55899-.4979.82235-.13863-.26336-.30371-.54323-.49785-.82235-.74813-1.07563-2.08231-2.3578-4.18965-2.3578-1.49836 0-2.86684.627991-3.85332 1.76825-.940938 1.08774-1.45918 2.54452-1.45918 4.10198 0 1.69535.649727 3.27219 2.04473 4.96237 1.24675 1.5105 3.04039 3.0676 5.11738 4.8706.77394.6719 1.5743 1.3667 2.42637 2.1262l.02558.0228c.11047.0986.24821.1478.38594.1478.1377 0 .2755-.0493.3859-.1478l.0256-.0228c.8521-.7595 1.6524-1.4542 2.4265-2.1262 2.0769-1.8029 3.8705-3.36 5.1173-4.8706 1.395-1.69022 2.0447-3.26702 2.0447-4.96237 0-1.55746-.5182-3.01424-1.4592-4.10202zm-6.4629 13.02639c-.6672.5791-1.3539 1.1752-2.0779 1.8164-.72398-.6411-1.41066-1.2372-2.07797-1.8165-4.0648-3.5287-6.75015-5.85984-6.75015-8.92427 0-1.26665.41425-2.44312 1.16648-3.31266.76086-.87941 1.81707-1.36375 2.97414-1.36375 1.6066 0 2.64516 1.00831 3.23344 1.85417.52769.75864.80304 1.5234.89695 1.81696.07856.24573.30344.41203.55711.41203.2537 0 .4786-.1663.5571-.41203.0939-.29356.3693-1.05832.897-1.817.5882-.84582 1.6268-1.85413 3.2334-1.85413 1.1571 0 2.2133.48434 2.9741 1.36375.7523.86954 1.1665 2.04601 1.1665 3.31266 0 3.06443-2.6853 5.39557-6.7502 8.92437z" fill="currentColor"/></svg>