<?xml version="1.0" encoding="utf-8"?><svg xmlns="http://www.w3.org/2000/svg" xmlns:xlink="http://www.w3.org/1999/xlink"><symbol fill="none" viewBox="0 0 6 9" id="arrow-back" xmlns="http://www.w3.org/2000/svg"><path d="M5.05.29a.991.991 0 010 1.401L2.415 4.326 5.05 6.96a.99.99 0 01-1.401 1.401L.274 4.986a.933.933 0 010-1.32L3.649.29a.99.99 0 011.4 0z" fill="currentColor"/></symbol><symbol fill="none" viewBox="0 0 9 14" id="arrow-next" xmlns="http://www.w3.org/2000/svg"><path d="M.863 12.758a1.48 1.48 0 010-2.138L5.008 6.6.863 2.58a1.48 1.48 0 010-2.138 1.594 1.594 0 012.204 0l5.31 5.15c.575.558.575 1.46 0 2.015l-5.31 5.15c-.609.59-1.596.59-2.204 0z" fill="currentColor"/></symbol><symbol fill="none" viewBox="0 0 9 14" id="arrow-prev" xmlns="http://www.w3.org/2000/svg"><path d="M8.151 1.242a1.48 1.48 0 010 2.138L4.006 7.4l4.145 4.02a1.48 1.48 0 010 2.138c-.608.59-1.596.59-2.204 0L.636 8.408a1.393 1.393 0 010-2.015l5.31-5.15a1.594 1.594 0 012.205 0z" fill="currentColor"/></symbol><symbol fill="none" viewBox="0 0 24 24" id="bookmark" xmlns="http://www.w3.org/2000/svg"><path d="M6.01 2c-1.096 0-2 .903-2 1.998L4 22l8-3 8 3V4c0-1.093-.907-2-2-2zm0 2H18v15.113l-6-2.25-5.998 2.25z" fill="currentColor"/></symbol><symbol fill="none" viewBox="0 0 8 15" id="btn-right" xmlns="http://www.w3.org/2000/svg"><path d="M.89 14.148a.701.701 0 00.508-.21l6.196-6.055a.729.729 0 00.226-.524.691.691 0 00-.226-.523L1.406.789A.708.708 0 00.891.57a.7.7 0 00-.711.72c0 .187.078.374.203.507L6.07 7.359.383 12.922a.742.742 0 00-.203.508.7.7 0 00.71.718z" fill="#fff"/></symbol><symbol fill="none" viewBox="0 0 14 14" id="close-video" xmlns="http://www.w3.org/2000/svg"><g fill="currentColor"><path d="M13.007 0L0 13.007.992 14 14 .992z"/><path d="M14 13.008L.992 0 0 .993 13.007 14z"/></g></symbol><symbol fill="none" viewBox="0 0 16 16" id="forward" xmlns="http://www.w3.org/2000/svg"><path d="M9.333 12.047l1-1L7.286 8l3.047-3.047-1-1L5.286 8z" fill="currentColor"/></symbol><symbol fill="none" viewBox="0 0 20 20" id="icon-add" xmlns="http://www.w3.org/2000/svg"><path d="M10 0C4.489 0 0 4.489 0 10s4.489 10 10 10 10-4.489 10-10S15.511 0 10 0zm0 2c4.43 0 8 3.57 8 8s-3.57 8-8 8-8-3.57-8-8 3.57-8 8-8zM9 5v4H5v2h4v4h2v-4h4V9h-4V5z" fill="currentColor"/></symbol><symbol fill="none" viewBox="0 0 20 22" id="icon-del" xmlns="http://www.w3.org/2000/svg"><path d="M6 0L5 1H0v2h1v15c0 1.093.907 2 2 2h8v-2H3V3h10v10h2V3h1V1h-5l-1-1zM5 5v11h2V5zm4 0v11h2V5zm4.879 9.93l-1.414 1.414 2.12 2.12-2.12 2.122L13.879 22 16 19.879 18.121 22l1.414-1.414-2.12-2.121 2.12-2.121-1.414-1.414L16 17.05z" fill="currentColor"/></symbol><symbol fill="none" viewBox="0 0 16 15" id="icon-question" xmlns="http://www.w3.org/2000/svg"><g fill="currentColor"><path d="M9.579 0H1.684C.816 0 .105.71.105 1.579v9.474l2.369-2.369h7.105c.868 0 1.579-.71 1.579-1.579V1.58c0-.868-.71-1.579-1.58-1.579zm0 7.105H1.842l-.158.158V1.58H9.58z"/><path d="M14.316 3.947h-3.948v1.58h3.948v5.683l-.158-.158H6.42V7.896H4.842v3.158c0 .868.71 1.578 1.579 1.578h7.105L15.895 15V5.526c0-.868-.71-1.579-1.58-1.579z"/></g></symbol><symbol fill="none" viewBox="0 0 24 24" id="inscription" xmlns="http://www.w3.org/2000/svg"><path d="M5 3a2 2 0 00-2 2v14a2 2 0 002 2h11.172l-2-2H5V5h14v9.172l2 2V5a2 2 0 00-2-2zm2 4v2h10V7zm0 4v2h5v-2zm8 4v2l5.146 5.146 2-2L17 15zm7.854 5.854l-2 2 1 1a.5.5 0 00.707 0l1.293-1.293a.5.5 0 000-.707z" fill="currentColor"/></symbol><symbol fill="none" viewBox="0 0 28 28" id="mark" xmlns="http://www.w3.org/2000/svg"><path clip-rule="evenodd" d="M14 0c-.814 0-1.474.66-1.474 1.474v11.052H1.474a1.474 1.474 0 000 2.948h11.052v11.052a1.474 1.474 0 002.948 0V15.474h11.052a1.474 1.474 0 000-2.948H15.474V1.474C15.474.66 14.814 0 14 0z" fill="currentColor" fill-rule="evenodd"/></symbol><symbol fill="none" viewBox="0 0 24 24" id="promocode" xmlns="http://www.w3.org/2000/svg"><path d="M4 3a2 2 0 00-2 2v3a2 2 0 010 4v3a2 2 0 002 2h16a2 2 0 002-2v-3a2 2 0 010-4V5a2 2 0 00-2-2zm0 2h16v1.537A4 4 0 0018 10a4 4 0 002 3.463V15H4v-1.537A4 4 0 006 10a4 4 0 00-2-3.463zm.9 14l12.44 2.93c.21.05.41.07.62.07 1.21 0 2.31-.81 2.61-2.01l.25-.99h-2.06l-.13.5c-.09.35-.46.57-.83.48L13.62 19z" fill="currentColor"/></symbol><symbol fill="none" viewBox="0 0 24 24" id="task" xmlns="http://www.w3.org/2000/svg"><path d="M12 1a2.99 2.99 0 00-2.816 2H5a2 2 0 00-2 2v14a2 2 0 002 2h14a2 2 0 002-2V5a2 2 0 00-2-2h-4.184A2.99 2.99 0 0012 1zm0 2a1 1 0 010 2h7v14H5V5h7a1 1 0 010-2zm3.293 5.293L11 12.586l-2.293-2.293-1.414 1.414L11 15.414l5.707-5.707z" fill="currentColor"/></symbol></svg>