<?xml version="1.0" encoding="utf-8"?><svg xmlns="http://www.w3.org/2000/svg" xmlns:xlink="http://www.w3.org/1999/xlink"><symbol fill="none" viewBox="0 0 16 20" id="add-basket" xmlns="http://www.w3.org/2000/svg"><g fill="currentColor"><path d="M12.722 5.842c1.166 0 2.14.902 2.267 2.098l.44 4.163a.57.57 0 11-1.135.12l-.439-4.156a1.152 1.152 0 00-1.133-1.049h-.727v1.485a.58.58 0 01-.57.588.58.58 0 01-.57-.588V7.018h-3.61a.58.58 0 01-.57-.588.58.58 0 01.57-.588h3.61v-1.72c0-1.624-1.28-2.945-2.855-2.945-1.574 0-2.855 1.32-2.855 2.945v4.38a.58.58 0 01-.57.59.58.58 0 01-.57-.59V7.019h-.727c-.583 0-1.07.451-1.133 1.05l-.998 9.452c-.073.696.454 1.304 1.134 1.304h11.438c.68 0 1.207-.607 1.134-1.304l-.032-.302a.57.57 0 011.134-.12l.031.294C16.133 18.786 15.073 20 13.72 20H2.281C.925 20-.133 18.784.014 17.392L1.01 7.94c.126-1.196 1.101-2.098 2.267-2.098h.727v-1.72C4.005 1.849 5.797 0 8 0c2.203 0 3.995 1.849 3.995 4.122v1.72z"/><path d="M12.776 11.678a.677.677 0 10-1.355 0V13.8h-2.01a.7.7 0 100 1.4h2.01v2.123a.678.678 0 001.355 0V15.2h2.01a.7.7 0 100-1.4h-2.01z"/></g></symbol><symbol fill="none" viewBox="0 0 15 13" id="arrow-back" xmlns="http://www.w3.org/2000/svg"><path d="M15 7H2.75L8 12.25l-.664.75-6.5-6.5 6.5-6.5L8 .75 2.75 6H15v1z" fill="currentColor"/></symbol><symbol fill="none" viewBox="0 0 17 20" id="basket" xmlns="http://www.w3.org/2000/svg"><path d="M16.517 17.392L15.486 7.94a2.352 2.352 0 00-2.342-2.098h-.751v-1.72A4.13 4.13 0 008.265 0a4.13 4.13 0 00-4.127 4.122v1.72h-.75A2.352 2.352 0 001.044 7.94l-1.03 9.452A2.355 2.355 0 002.356 20h11.817c1.4 0 2.494-1.214 2.343-2.608zm-2.343 1.432H2.357a1.176 1.176 0 01-1.172-1.304l1.031-9.452a1.176 1.176 0 011.171-1.05h.75v1.485a.589.589 0 001.18 0V4.122a2.95 2.95 0 015.898 0v1.72H7.486a.589.589 0 100 1.176h3.729v1.485a.589.589 0 001.178 0V7.018h.75c.603 0 1.107.451 1.172 1.05l1.03 9.452a1.176 1.176 0 01-1.17 1.304z" fill="currentColor"/></symbol><symbol fill="none" viewBox="0 0 12 12" id="close" xmlns="http://www.w3.org/2000/svg"><path d="M6.663 6l5.2-5.2A.469.469 0 1011.2.137L6 5.337.8.137A.469.469 0 10.137.8l5.2 5.2-5.2 5.2a.469.469 0 10.663.663l5.2-5.2 5.2 5.2a.468.468 0 00.663 0 .469.469 0 000-.663z" fill="currentColor"/></symbol><symbol fill="none" viewBox="0 0 20 18" id="heart" xmlns="http://www.w3.org/2000/svg"><path d="M18.54 1.768A5.028 5.028 0 0014.689 0c-2.108 0-3.442 1.282-4.19 2.358-.194.279-.36.559-.498.822a7.832 7.832 0 00-.498-.822C8.754 1.282 7.42 0 5.312 0A5.028 5.028 0 001.46 1.768C.52 2.856 0 4.313 0 5.87c0 1.696.65 3.272 2.045 4.963 1.246 1.51 3.04 3.067 5.117 4.87.774.672 1.574 1.367 2.426 2.126l.026.023a.578.578 0 00.772 0l.026-.023c.852-.76 1.652-1.454 2.426-2.126 2.077-1.803 3.87-3.36 5.117-4.87C19.35 9.143 20 7.566 20 5.87c0-1.557-.518-3.014-1.46-4.102zm-6.462 13.027A270.77 270.77 0 0010 16.61c-.724-.641-1.41-1.237-2.078-1.817-4.065-3.528-6.75-5.86-6.75-8.924 0-1.266.414-2.443 1.166-3.312a3.88 3.88 0 012.974-1.364c1.607 0 2.646 1.008 3.234 1.854.528.759.803 1.523.897 1.817a.587.587 0 00.557.412.587.587 0 00.557-.412c.094-.294.37-1.058.897-1.817.588-.846 1.627-1.854 3.233-1.854a3.88 3.88 0 012.975 1.364c.752.87 1.166 2.046 1.166 3.312 0 3.065-2.685 5.396-6.75 8.925z" fill="currentColor"/></symbol><symbol fill="none" viewBox="0 0 16 16" id="location" xmlns="http://www.w3.org/2000/svg"><path d="M8 1.333A4.672 4.672 0 003.333 6C3.333 9.5 8 14.667 8 14.667S12.667 9.5 12.667 6A4.672 4.672 0 008 1.333z" fill="currentColor"/><circle cx="8" cy="6" fill="#fff" r="2"/></symbol><symbol fill="none" viewBox="0 0 16 17" id="search" xmlns="http://www.w3.org/2000/svg"><path d="M7.137 0a7.136 7.136 0 015.414 11.785L16 15.233l-.776.776-3.45-3.45A7.137 7.137 0 117.137 0zm0 1.098a6.038 6.038 0 100 12.077 6.038 6.038 0 000-12.077z" fill="currentColor"/></symbol></svg>