<svg xmlns="http://www.w3.org/2000/svg" id="Слой_1" x="0" y="0" viewBox="0 0 783 343.5" xml:space="preserve"><style>.st0{fill:#282a29}</style><path class="st0" d="M782.8 14.3c-.7.3-1.5 1-2.2 1-9.5-.8-17.1 5.7-26.2 6.6-5.2 6.9-13.9 4.8-20.4 8.1-7.1 3.5-14.5 5-22.2 6.3-3.6.6-7 2.1-10.9 3.3-.6-3.4-1.2-6.3-1.7-9.2 5.4-4.8 8.6 3 13.6 1.9-1.6-1.4-3.1-2.7-4.6-4 4.4 1.6 7-2.1 10.3-2.8 3.7-.8 7.3-1.8 11-2.1 5.7-.5 9.7-2.5 13.3-7.7 3.2-4.7 10-4 15.6-3.4 1 .1 2 .3 3.2.5-.1-2.2-.3-3.9-.4-6.1 4.2.3 8.1.6 13.6 1 2-1.2-3.4-5.6.5-7.7 2.6 4.8 5.1 9.5 7.5 14.3zM327.9 329.5c-3-.4-6.4.7-8.6-2.8-.7-1.1-3.2-1.6-4.8-1.5-7.4.6-14.2 2.5-20.9 6.1-4.9 2.6-11.3 2.6-16.9 4.1-6.8 1.8-12.6.2-18.2-4.5.9-1.8.8-3.1 3.7-4.8 8.8-5.1 18.9-2.2 27.6-6.4 3.6-1.7 7.5-2.7 12.1-4.3.2-1 .6-3 .9-4.8 2.5-2.4 8.6 1.3 7.9-5.3 0-.2 1.8-.6 2.8-.8 4-.7 7.9-1.4 11.9-1.9 6.2-.8 12.3-1.4 18.5-2.2 3.2-.4 5.1 1.1 5.9 4.1.6 2.2.3 5.1 1.7 6.4 1.3 1.2 4.2.8 6.4 1.2 1 .2 2 .5 3 .7 1-2 1.8-3.7 2.6-5.1-1.2-2.3-2.4-4.7-4.2-8-2-1.6-5.5 4.9-8.3.2 5.3-6.4 12.4-1.3 18.3-3 .5 3.6-.6 7.6 4.5 10.6-.1-2.7-.1-4.5-.2-7 1.2.7 2.1.9 2.3 1.4 1 2.7 2 5.3 5.7 2.2-1.7-1.4-3.3-2.7-5.7-4.7 3.4-.6 7.1.4 6.9-4.2 0-.7 3-1.8 4.7-2.1 4.1-.8 8.4-1.2 12.5-1.9 6.8-1.2 8.8-5.4 5.2-12 3.1-.3 5.9-.6 8.8-.9l-2.4 4.5c1.9.5 3.8 1.1 5.8 1.7 0 .7 0 1.7-.1 3 2.4-1.2 2.9-4 5.7-4.1.6 0 1.7-2.2 1.5-3.1-.3-.9-1.9-1.9-3-2-2.6-.2-5.3 0-7.9.1 8.2-2 16.5-4.1 24.7-6.2 1-.3 2-.6 2.9-1.2.6-.4.8-1.3 1.6-2.7-1.8-1.2-3.3-2.7-5.1-3.3-8-2.3-15.9-4.7-24-6.3-13.1-2.7-26.3-4.9-39.4-7.2-3.7-.6-7.5-.7-11.2-1.1-7.8-.8-15.6-1.5-23.4-3.4 2.6-1 5.1-2 8.4-3.3l-3.9-3.9c3.7.2 6.4.3 9.9.5.3-.9.8-2.3 1.3-3.7 4.7-.5 4.7-.5 12.4-8 5.4 4.1 5.4 4 10.8.8 1.1-.6 2.4-.9 3.6-1.2 1-.3 2-.4 3.1-.6v-6.1c9 .6 17.2-1.4 26-4 1.3.8 3.4 2 6.6 3.8-1.1-4.3-1.8-7.2-2.8-11.1 6.5.7 11.5 1.1 14.8 6.1 2.9 4.4 8.1 1.6 11.7 3.7 3.4-3.8 6.7-.6 10.5.2.6-1.3 1.1-2.5 1.6-3.6 5.1 1.4 9.2 5.8 15.1 4 .9-.3 2.5.8 3.5 1.6 7.7 6.8 12.6 15.1 12.1 25.5-.5 11.2.3 22.2 2.9 33.1 1.3 5.7-1.4 10.4-3.1 15.3-.3.9-2 1.6-3.1 2.1-11.9 5.5-24.4 9.1-37.2 11.6-3.9.8-7.7 1.7-11.6 2.4-3.9.7-7.8.8-11.6 1.8-3.6 1-7 3.4-11 1 .1-.9.1-1.9.2-3.1-1.8.1-3.6.1-5.8.2.6 7.4-6.2 7.3-9.6 7.4-14.8.6-28.7 5.9-43.2 8-7.5 1.1-14.6 2.1-21.9-.1-3.5-3.3-3.5-3.3-7.4-1.8 2.1 1.4 4 2.7 5.9 3.9zm90.7-102.8c-.5-.3-1.1-.7-1.6-1-1.5 3.1-7.9-2-7 5.7 2.7.4 5.4.7 8.7 1.1-.1-2.4-.1-4.1-.1-5.8zm-17.1 13.9l.3-1.8c-1.4-.1-2.8-.3-4.2-.4-.1.4-.1.8-.2 1.2 1.4.3 2.7.6 4.1 1zm-99.9-134c3.1-.7 6.2-1.3 9.3-2.1 2.6-.7 5.9-.3 6.6-4.4.1-.4 4 1.1 7-1.1 3.6-2.6 5.6-5.3 7.1-9.7-4.3-.7-8.2-2.2-12.5.7 1.1 1.6 2.1 3 3.8 5.5-4.2-.6-7.2-1.1-11-1.7 1.5-1.5 2.2-2.2 3.1-3.2-2.5-.1-4.7-.2-7.4-.3-.1-1.8-.2-3.4-.5-6.7 5.3 5.7 9.5 1 13.8.6.4 0 .7-2.3 1.1-3.9 5.3 2.2 8.9-.1 11-4.6 3.1 1.9 5.7 3.6 9.5 5.9 0 .1.4 1.9.5 2.9 5.6 1.9 10.6 3.6 16.6 5.6-.4-4.7-.9-9.6-1.4-14.6 4.1-.6 5.7 6.4 9.9 2.3 1.9 2.1 3.7 4.2 5.9 6.7 2.8-4.4 1.5-11.4 5.7-13.6 4.2.2 7.3 1.2 9.2.1 2.9-1.6 8.9-.3 7.9-6.4 4.4.5 8.7.7 12.9 1.5 2.1.4 3.8 1.6 2.1 4.6-1.6 2.9.5 8.9 3.2 10.2 1.3.7 3.6 1 4.5.3 1.2-.9 1.4-3 2.1-4.5l-.1.2c1.5-.3 3.3-.2 4.5-1 4.5-3.3 7.8-1.8 11 1.9.2.2 1-.1 2.3-.2-.4-1.9-.9-3.7-1.3-5.6 4.2-2.8 4.2-2.8 11.4 2.9-.4-1.6-.5-2.4-.7-3.1-.2-.7-.5-1.4-.9-2.7 5.2-3 10.3-5.9 15.4-8.8.9-.5 2.2-1.4 2.9-1.1 5.6 2.8 8.2-1.6 12.1-4.8 1.2.5 2.8 1.2 4.8 2.1.6-1.1 1.3-2.4 2-3.8.4-.1 1-.4 1.4-.3 2.5 1 4.9 2.6 7.2-.3.3-.3 1-.8 1.1-.7 1.4 1.3 2.3 4.4 4.8 2.1 1.2-1.1.5-4.7 1.6-5.2 3.6-1.8 3.7-5.3 4.6-8.8 4.5 5 7.1 9.9 5.4 15.8-1.4.5-3.3.9-5 1.6-4.1 1.9-8 4-12.1 5.9-2.2 1-2.3.8-2.7 5.3 10 4.4 15.7-2 21.6-8.9 2.8 1.2 5.5 2.3 8.2 3.4 3.8-3.4 7.4-5.3 12.6-4.7 2 .2 4.4-3.4 6.6-5.4 1.8.8 3.6 1.7 5.3 2.5 5.4-3.1 7.1-12.5 15.4-8.5 4.6-3.3 8.9-6.6 13.5-9.4 1.3-.8 3.6-2.7 5.6 0 1.9 2.6 5.1 2.8 7.1 1.1 1.3-1.1.9-4.1 1.5-7.2 1.6-.5 4-1.4 6.2-2.2 4 2.3 7.9 4.1 8.3 9.5-4.3.7-6.4 4.8-6 7.9 1 6.8 7.5.3 10.4 4.3.7-2.1 1.1-3.3 1.6-4.5 6.3-.7 12.6-1.4 19.2-2.1.1-2.6.2-4.6.3-6.8 2.2 1 4.4 1.9 8.8 3.9 0-1.9 0-3.3.1-5.3 5.8-1.6 12.1-3.3 18.9-5.1-.6-2-1.2-3.9-2.3-7.2 3.8 1.5 6.3 2.4 9 3.5.2-1.5.5-2.9.8-5.1 6.3 3.1 11 .1 15.6-3.4.5-.4 1.2-1.3 1.4-1.2 6.3 3.4 9.7-1.8 13.8-5 2.1 1.5 4 2.9 6 4.4 1.7-3.1 3.3-6.1 5-9.3 3.4 2.1 6.6 3.9 9.5 6 .3.2-.4 2-.7 3.5-4.5-2.4-7.2 1-10.5 2.8-3 1.6-8.4.2-8.1 6.6-.9-1.1-1.8-2.2-2.7-3.4-4.8 6.2-4.8 6.2-1.6 11-2.5 1.3-4.9 2.8-7.5 3.8-1.5.6-3.3.5-4.9.7-1.6.3-3.2.6-4.7 1-.6.1-1.1.8-1.6.8-7-1-16.3 1.4-21.8 5.1-3.9 2.6-7.6 5.6-13.1 5-2.9-.3-6 1.9-9.1 2.9-1.7.6-3.4 1.5-5.1 1.6-3.3 0-7.2 1.3-9.1-3.2-.3-.7-2.3-.6-4.3-1.1.6 2.6.9 4.3 1.3 5.9-1.5 2.8-3.4 2.5-21.6-3.2-.1-1.3-.1-2.8-.3-4.3-.1-1.6-.3-3.1-.6-5.5-1.8 1.2-4 1.9-4 2.8-.5 4.8-.4 9.6-.6 15-2-.5-4.9-.3-5.8-1.5-2.9-4.2-6.3-2.6-9.7-1.6-4.5 1.4-8.7 3.8-13.8 2.5-1.4-.4-3.8.8-4.9 2.1-3.1 3.6-7 4.4-11.4 4.6-2.3.1-4.6 1.4-6.6 2.6-3.1 1.8-9.2 3.3-12.3 2.8-.5-.1-1.3-.5-1.5-.4-3 3.3-6.3 2.9-10.2 1.8-1-.3-.5 3.6-4 3.9-8.3.9-15.2-1.5-21.8-7.4-2.7 5.8-8.3 5.2-12.8 6.6-7.4 2.5-14.9 4.9-22.4 6.9-5.6 1.5-10.1 3.3-13.9 7.9-4.9-3.1-8.5-1.5-13.1 1.3-3.8 2.3-9.3 2.2-14 3.4-6.2 1.6-12.6 2.4-19.2 3.5-1.8-2.7-3.4-7.1-7.6-5.7-2.4.8-3.9 4.2-5.4 6-2-.3-4.3-1-6.6-.9-3.9.2-7.6 2.9-11.6.4-.4-.3-1.8.2-2.1.7-2.2 4.5-3.6-.7-4.1-.6-5.2 3.3-9.2 6.5-13.7 8.6-4.7 2.2-8.7-2.5-14.7-2.7 2.3 2 3.9 3.3 6.1 5.1-5.9 2.1-12 0-17.6 3.4-3.7 2.4-7.4-1.9-8.4-7.8zm105.5-30.4c-3.2 1.7-6 3.1-8.8 4.5-1.3-.9-2.5-1.9-3.6-2.7-5.9 5.8-5.9 5.8-5.1 11.6 8-1.4 15.9-2.9 24.4-4.4-2.2-2.9-4.2-5.5-6.9-9zm-66.8 148.7c1.2-1.8 2.4-3.5 3.7-5.5 4.8 2.2 5.5 7 7.3 11-6.2 6.7-13.7 10.6-23.9 8.8.6 2.3 1 3.5 1.3 4.5-5.3 3.3-10.7-.9-16.5.6-5.3 1.4-11.5-.3-17.2-.6-.6-2.9-1.1-5.6-1.6-8.4 1.6-.5 3-1 6.4-2.2-5.5-2.3-9.5-3.9-13.6-5.5-1.3 5.6-7.7 3.4-11.2 7.1 1.3 1.5 2.7 3.1 4.2 4.8-7.4-.6-14.6-1.2-22.5-1.9 5.8-8.1 12.2-12.9 21.9-10.9 4.2-4.3 10-6.9 16.5-6.9 3.4 0 4.9-1.2 4-4.6 3.7-.9 7.4-1.8 11.2-2.8 3.1-.8 3.8.9 3.8 3.8-2.4-.1-4.7-.2-7.2-.3-.5 6.3-6.3 7.8-11 11.6 3.9 1.1 7.1 2 10.5 2.9-.3 1.2-.7 2.3-1.1 4 2.8.4 6 3.9 7.2-2.1.1-.5 1.7-1.1 2.6-1.1 3.2-.1 6.6.5 7.8-3.8.1-.5 2.5-.2 3.4-.8 1.5-1 2.6-2.5 4.2-4.1 2.9.7 6.3 1.5 9.8 2.4z"/><path class="st0" d="M272 104.8l-6.9-1.8c-5 5.4 3.7 11-.4 16.7-2.6-1-5-3.7-8.8-1.1-3 2.1-7.5.9-8.7-2.6-1.4-4.3-4-4-7.2-4.7 2.4-.3 4.8-.5 7.7-.8.2-2.2.5-4.9.8-8.3-1.7-.1-3.4-.3-5.3-.4-.3 1.9-.5 3.4-.9 5.4-1.9-.8-3.5-1.5-6.5-2.7 2.5-2.2 4.9-5.3 5.8-5 4.5 1.8 8.4-4.6 12.7-.5.2.2 1.2-.1 1.4-.5 3.2-5.7 6.2-.8 9.2.1 5.3-2.9 9.2-8.3 16.4-8.4.5 1.1 1 2.3 1.4 3.4 1.8-.2 3.6-.5 5.7-.7 1.1-3.5-.1-8.4 5.6-10.1 1.7 4.4 5.2 4.6 9.5 2.7 2 3.8 3.7 7.2 5.7 10.9-9.6 3.4-19 5.7-27.5 11.5-.1 1.7-.3 3.8-.5 6.1-2.7.1-5.1.4-7.4.2-3.7-.2-4.6-1.9-2.1-4.9 1.7-2 1.4-3.1.1-4.7 1.9.6 3.9 1.1 3.9-1.8 0-.7-1.4-2-2-2-2.7.3-2.8 2-1.7 4zm-74.8 231.9c.5-3.1 1.1-6.2 1.6-9.2 5 .1 10.1.2 15.1.2 4.5-.1 8.7-.5 11.8-4.7.8-1.1 3.7-1.2 5.6-1.1 5.6.5 5.6.6 6.5-5.9 3.5-.5 7.5.2 9.6-4.6.6-1.5 5.3-1.2 8.6-1.8.1 3.9 1.3 6.2 6.2 4.3-1.6 2.7-2.7 4.5-4 6.7-.4-.1-2.1-.4-3.9-.7-1.7 2.4-3.3 4.5-1 7.3 1.6 1.8 2.9 4 4.3 6-.5.4-.9.9-1.4 1.3-1.6-1-3.1-2.1-4.8-2.8-3.8-1.7-4.4.5-4 3.5-2.4-1.4-4.8-4-7.1-3.9-5.4.3-11.1.9-15.9 3.2-6.8 3.3-14.1 4-21.2 5.4-1.7.3-3.9-2.2-5.8-3.4l-.2.2zm30.7-209.4c-2.4 2.4-4.4 4.3-6.7 6.7-1-2-1.8-3.5-3.3-6.4-1.2 3.3-1.9 5.4-2.8 7.8-2 .1-4.3.2-6.7.3-.8-3.3-1.5-6.2-2.3-9.6 2.5.5 4.5.9 6.4 1.3 2.2-5.6 2.2-5.6-4.7-8.2 1.2-2.3 2.4-4.5 3.5-6.7-.2-.3-.4-.6-.6-.8-1.3.9-2.5 1.9-4 2.9-4.1-2.4-4.1-2.4-5.4-8.1 1.7 0 3.3-.1 4.9-.1 1.7-1.9 3.6-4.2 5.9-6.8 1.4 1.5 2.6 2.8 3.7 4.1.5 0 1.3.2 1.5 0 3.4-5 2.8-4.2 7.5-.5 5.8 4.6 5.4 9.5 2.6 14.7-1.8 3.4-1 6 .5 9.4zm-7.3-10.2c.1.5.2 1.1.3 1.6 1.4-.2 2.8-.5 4.2-.7-.1-.6-.2-1.1-.3-1.7-1.4.3-2.8.6-4.2.8zm-55.2 12.1c-1.6-8.1-1.1-9 5.6-10.5 1.6 3 3.1 6.1 4.6 9 3-.8 5.2-1.3 7.4-1.8 1.4 4.2 2.7 8-4 11.1 4.4 1.6 7 2.5 10.1 3.5-2 3.7-4.5 4.9-7.6 5.2-1.4-5-2.7-9.7-3.9-14.2-7-2.4-10.9 1.4-14 6.4-1.3-2.5-2.3-4.5-3.7-7.1 1.5-.6 3.5-1.1 5.5-1.6zm-63.8 23.7c4.5-2 8-1.8 10.4 2.7.5.9 3.2.7 5.3 1 .3-2.9.4-5 .6-7.1 2.7 2.9 6.9 4.9 3.6 9.8-3.3 4.8-5.9.1-9.4-.4-.8 1.7-1.6 3.5-3.1 6.7-1-3.3-1.6-5.1-2.1-7-7.8 3.4-9.1 2.6-9.9-5.8-.2-1.5-1.4-2.9-2.3-4.5-1.9 1.5-3.4 2.6-6 4.7 1.7-3.4 2.8-5.5 3.8-7.5 4.8-.1 7.9 2.2 9.1 7.4zm43.5 183.6c6.6-6.9 15.4-6.6 24.1-9.1.4 2.2.8 4 1.3 6.8-2.7-1.1-4.3-1.8-5.9-2.5-.9 2.1-1.8 4.1-2.9 6.7-3.7-.3-7.3-.7-10.9-1-.8-.1-1.8-.1-2.3.3-2.1 1.9-3.7 4.7-7.4 2.2-1.7-1.2-4-1.4-5.5-3.2-.7-.8-2.1-1.1-3-2.3 4.1 1.7 9.2-4.6 12.5 2.1zM84.6 180.3c-1.8-4.3-3.7-8.5-5.5-12.8-.5-1.2-.9-2.5-1.6-3.6-3.6-5.9-3.7-5.9-.9-11.6-.4-2-5-2.4-2.1-5.9 4.2 2.1 7.1 5 6.3 10.2-.5 3.4 1.1 5.3 3.6 7.3 4.7 3.7 4.5 4.1 1.6 10.5-.7 1.6-.2 3.7-.3 5.6-.4.1-.7.2-1.1.3zM421.8 77c-1.1-1-2.3-2.1-2.8-2.6-1.5-5.7-2.9-11-4.5-16.7 2.6-.1 6.1-.2 10.4-.4-1.3 5.6 5.8 6.4 6.9 11.9-3.7-.4-6.3-.7-9.4-1.1-.2 3.3-.4 6.1-.7 9 0 .1.1-.1.1-.1zM131 140.1c-2.9-2.4-4.4-3.7-5.7-4.8-3.9 2.6-.9 5.6-1.5 9.2-4.5-4.9-3-11.2-6.3-15.5 4.3-3.1 8.7-1.7 12.7-1.1 1.5.2 3.7 2.8 3.8 4.3.1 2.3-1.6 4.6-3 7.9zm-71.9 16.8c1.1.7 2.1 1.4 4 2.7-3.3 1.1-5.8 2-9.3 3.1.6 2.9 1.2 5.7 1.9 9-.9-.4-3-.9-2.9-1.3.3-3.9-5.9-6.3-2.4-10.8-.8-.6-1.6-1.1-2.2-1.8-1.9-1.9-1.7-3.9.3-5.4 1.9-1.5 4.4-1.8 5.5.6 1.2 2.6 2.9 3.6 5.4 4-.1 0-.3-.1-.3-.1zm297.6 58.5c4.5-2.2 9.3-.6 13.8-3 .1.8.2 1.6.3 2.3-1.5.4-3.1.9-5.2 1.5.4 2 .9 4.2 1.3 6.3-.5.5-.9 1.2-1.3 1.2-5.4.2-10.8.7-15.4-3.1.7-3.8 6.9-.8 6.6-5.5l-.1.3zM621.8 24.8c-1.9 4.9-1.9 4.9-8 8.2 0 1.9-.1 4-.1 6-.7.2-1.1.5-1.5.4-5.9-1.7-7.4-6.2-7.1-12.3 1.3.9 2.4 1.9 3.6 2.5 2.8 1.4 5.7.8 6.4-2.2 1-4.4 3.5-2.6 6.7-2.6zm-546.2 146c-10 2.2-6.1 10.4-7.5 16.6-5.6-6.8-7.2-12.3-4.8-15.3 1.4-1.6 8.6-2.7 12.3-1.3zm172.6 50.4l4.1 4.1c-7.8.3-8.1 0-9.3-12.1 1.9.6 3.4 1.4 5 1.5 1.5.2 3-.3 4.4-.5.5 1.7 1 3.1 1.5 4.9-1.6.6-3.3 1.2-5.7 2.1zM94.8 133.4c.4 1.8.9 3.7 1.3 5.5-.5.2-1 .5-1.6.7-1.5-2.8-3.3-5.6-4.3-8.6-.3-.9 1.4-3.8 1.8-3.7 3.2.5 5.6.3 6.7-3.3 1.1.8 2.3 1.7 3.9 2.9-2.8 2.4-5.2 4.4-7.8 6.5zm17.5-7.8c1.1 4.9 2.1 9.4 3.2 14.1-2-.2-4.2-.3-6.3-.8-1.3-.3-3.1-1-3.6-2.1-.8-1.6-.8-3.3 1.9-4 1-.3 1.3-2.9 2.2-4.3.7-1.1 1.8-2 2.6-2.9zm82.8 7.3c-3.2-6.2-5.7-10.9-8-15.7-.2-.3 1.3-1.4 2.4-2.5 2.5 5.6 8 9.5 5.6 18.2z"/><path class="st0" d="M301.6 106.6c-1.4 2.6-2.9 5.2-4.4 7.8-6.6-3-6.6-3.1-5.9-9.2 3.5.5 6.9 1 10.3 1.4zm83 110.7c-1.4 2.2-2.8 4.4-4.3 6.5-.5-.2-1-.5-1.4-.7.2-1.4.5-2.8.8-4.6-1.3-.7-2.9-1.5-5.2-2.6.8-2.4 1.6-5 2.4-7.5.6.1 1.1.2 1.7.3-.2 1.7-.3 3.5-.6 5.6 2.2.7 4.5 1.5 6.8 2.3l-.2.7zM543.8 38.4c-10.5 1.1-10.5 1.1-12.5-5.8 2.5 2.2 4.2 4.5 7.7 2.5 2.5-1.5 4.1.6 4.8 3.3zm-103.7 9.4c-.1 3.2-.2 5.5-.3 8.6-2.4-1.1-6.9.8-3.3-4.4.4-.6-1.6-2.7-2.9-4.8 2.4.1 4.1.3 6.5.6zM88.4 158c3.4.3 5.9-.2 6.4.7 1.7 2.6 3 5.7-.3 8.7-4.8-.4-3.4-4.9-6.1-9.4zm1.8 175.5c3.3.5 5.7.9 9.5 1.5-3.6 1.9-5.8 3-8.3 4.3-.3-1.4-.6-3-1.2-5.8zM555 27.4c.2-7 6.5-1.9 8-7.1.4 7.5.4 7.5-8 7.1zM260.2 310.2c6.9-2 6.9-2 10.1 4.3-6 4-5.1-6.7-10.1-4.3zM719.8 16.1c-1.7-3.3-3.1-6-5-9.7 3.2.8 5.7 1.5 8.3 2.2-1 2.3-1.9 4.3-3.3 7.5zM209.7 212.8c-4.6-.2-8-.3-12.3-.5 3.3-4.5 7.2-2.5 10.4-3.1.3 0 .8 1.6 1.9 3.6zm-37-64c-2.1-.1-4.2-.2-6.6-.3 0-2.1.1-3.6.2-6.6 3 2.3 4.9 3.8 6.9 5.4-.2.5-.3 1-.5 1.5zM7.8 183c-4.1 2.2-5.2-1.7-7.8-3.2 3.8-2 3.8-2 7.8 3.2zm189.5 153.3c-2.7 1.9-5.2 2.8-7.4-.7 4.6-4 4.6-4 7.3 1.1l.1-.4zM37 164.3c1.3-1.7 2.2-2.8 3.5-4.4l4.5 3c-.2.4-.3.8-.5 1.2-2.4 0-4.7.1-7.5.2zm506.9-133c2.7-1.2 4.4-1.9 6.8-2.9.1 1.7.6 2.9.2 3.5-2 3.6-3.9 1.7-7-.6zM31.8 162.1c-4.7.7-5.4-1.9-6-4.9 3.3-.2 5.8.4 6 4.9zm17.3 27.4c.1-2.3.1-4.7.2-7.9 4.3 3 3.8 5.5-.2 7.9zm476-147.1c-.1 3.1-.3 5.8-.4 8.6-4-5.3-4-5.3.4-8.6zM252.8 84.6c2-1.7 3-2.5 4.2-3.5.7 1.9 1.2 3.2 2.1 5.6-2.2-.7-3.6-1.2-6.3-2.1zm-109.5 65.5c1.6-1 3-1.8 4.8-2.8.2 1.5.5 2.4.3 2.9-1.3 2.9-2.9 2.5-5.1-.1zm44.8 168.5c1.6-.1 3.1-.2 4.7-.4-.1.9-.1 1.9-.2 2.8-1.5-.3-3-.5-4.6-.8.1-.5.1-1.1.1-1.6zM91.9 183.8c-1.3.9-2.5 1.8-4.2 2.9.2-3.8.2-3.8 4.2-2.9zm488-165.3c2.9 0 4.8-.1 7.4-.1-2.6 4.1-4.5 3.1-7.4.1zM241.5 122.7c-.5-2.4-.9-4.1-1.5-6.7 2.6 1.9 4.4 3.3 1.5 6.7zm-5 103.1c-1.1-.4-2.2-.9-3.3-1.3.3-.6.8-1.8 1-1.8 1.1.3 2.2.9 3.3 1.4-.3.6-.7 1.2-1 1.7zm163.9-20c-2.3-.3-4.4-.5-6.6-.7l.3-2.1c2.1.4 4.1.8 6.2 1.2.1 0 .1.8.1 1.6zm-259.7-63.6c1.1-.9 2.2-1.7 3.3-2.6.4.6.8 1.2 1.3 1.8-1.1.8-2.2 1.6-3.4 2.4-.4-.5-.8-1.1-1.2-1.6z"/><path class="st0" d="M384.8 216.7c2.4.2 4.9.5 7.3.7-2.6 1.9-5.1 1.2-7.5-.2 0 .1.2-.5.2-.5zm-122.1-8.5c1.6-.1 3.3-.3 5.5-.4-1.5 4-3.6 2.5-5.3 2.3-.1-.7-.2-1.3-.2-1.9zM59.3 157c-.4-2.5-.8-4.9-1.3-8 2.7 2.8 3 5.2 1 8 .1-.1.3 0 .3 0zm70.4 179.5c-1.4 0-2.9.1-4.3.1 0-.8 0-2.1.1-2.2 1.4-.2 2.8-.2 4.2-.2-.1.8-.1 1.5 0 2.3zm-3-228.6c-1.6-.1-3.5-.3-5.4-.5v-1.3c1.9 0 3.7-.1 5.6-.1.2 0 .4.4.4.6 0 .2-.2.5-.6 1.3zm159.7 6c-1.1-1.5-2.1-2.3-2.1-3 0-.6 1.2-1.3 1.9-1.7.2-.1 1.3.9 1.3 1.4 0 .8-.5 1.7-1.1 3.3zm429-92.4l3-.9c-.3.8-.5 1.6-1 2.2-.2.2-1 0-1.5 0-.1-.4-.3-.8-.5-1.3zm-575 103.8c.6.9 1.2 1.7 1.8 2.6-.7.3-1.3.6-2 .9-.3-1-.5-2-.8-3 .3-.2.6-.4 1-.5zm5.2-11.4c1.2-1.6 1.6-2.6 2.2-2.8.7-.2 1.6.5 2.4.8-.3.6-.5 1.6-1 1.8-.7.4-1.7.2-3.6.2zm92.5 104.9c-1.6-.5-3.2-.9-4.8-1.4.2-.6.3-1.2.5-1.8 1.7.4 3.3.8 5 1.2-.3.6-.5 1.3-.7 2zm-5.2-139.5c1.3.7 2.6 1.4 4 2.1-.3.5-.6 1-.8 1.5-1.3-.7-2.6-1.5-3.9-2.2.2-.4.4-.9.7-1.4zm124 135.7c-.7.3-1.5.8-2.2.8-.9 0-1.9-.3-2.8-.8-.2-.1.3-2 .5-2 .9 0 2 .2 2.8.6.6.3 1.1 1.1 1.6 1.7-.1.1.1-.3.1-.3zM289.8 67.1c.9.8 1.7 1.6 2.6 2.5l-.9.9L289 68c.2-.3.5-.6.8-.9zM180.9 334.4c-1-.6-1.9-1.2-2.9-1.9.3-.4.6-.8.9-1.1l2.4 2.4c-.1.2-.3.4-.4.6zm-100-209.2c-.9.3-1.8.5-2.7.8-.1-.3-.2-.5-.2-.8.9-.2 1.9-.3 2.8-.5 0 .2 0 .3.1.5zm44.5 30.8c-.1-1.1-.1-2.2-.2-3.3.4-.1.9-.1 1.3-.2.2 1 .3 2.1.5 3.1-.5.2-1.1.3-1.6.4z"/></svg>