<svg xmlns="http://www.w3.org/2000/svg" viewBox="0 0 1068 67.6"><path d="M0 43.1c4.4 1.2 8.7 2.1 13.3.1 2.5-1 5.8 0 8.7-.3 20.9-2.2 41.7-4.6 62.6-6.7 8.1-.8 16.3-.8 24.4-1.4 14.6-1.2 29.2-2.5 43.9-3.9 12.7-1.2 25.5-2.4 38.2-3.7 16.1-1.6 32.3-3.1 48.4-4.8 9.3-1 18.6-3.6 27.7-3 14.2.8 27.5-3.9 41.3-4.4 11.6-.4 23.1-2.5 34.7-3.4 4.5-.4 9.1.7 13.6.4 8.2-.6 16.4-1.9 24.6-2.6 7.2-.6 14.4-.9 21.6-1.2 12-.5 23.9-1 35.9-1.4 13.3-.5 26.7-2 40-1.1 11.3.8 22.2-1.6 33.4-1.5 14.3.1 28.7-.6 43-.7 15.7-.1 31.4.1 47.1 0 6.6 0 13.2-.7 19.9-.8 9.9-.1 19.8 0 29.7 0 15.7 0 31.4.2 47.1.1 21.8-.1 43.7-.3 65.5-.8 19.3-.6 38.8-2 58.2-2 21.1 0 42.3 1.1 63.4 1.6 16.3.3 32.6.3 48.8.4 18.2.1 36.4.1 54.5-.1 9.7-.1 18.2 3.3 26.7 7.3 5.8 2.8 12.2 3.5 18.5 4.5 1.4.2 3-.9 5.1-1.5.2 1.7.3 3.1.5 4.7 4 .6 2.5-2.6 2.8-4.5 4.2.8 8.2 2.4 12.6 2.2.7 0 1.9 1.4 2.1 2.3 1.4 6.1 10.2 6.8 9.4 14.3-.9-1.6-1.8-3.2-2.9-5.1-.9.5-1.6.8-2.2 1.2-4.4 3-8.3 6.1-14.7 4.9-21.3-4-42.8-6.6-63.7-12.7-6.5-1.9-13.8-1.2-20.7-1.1-13 .2-26.1.9-39.1 1.4-.8 0-1.6.1-2.3-.2-9.7-4.4-19.9-5.4-30.4-5.1-1.9.1-4 .2-5.6-.6-7.5-4-15.7-3.2-23.6-3.8-24.8-2.1-49.7-1-74.6-.2-4.3.1-8.6 1.7-12.9 2.5-.7.1-1.9.4-2.1 0-2.9-4.5-7.4-2.5-11-2.3-8.7.6-17.7-.9-26.1 3.1-.6.3-1.6.2-2.3-.1-9.6-3.4-19-2.4-28.8-.3-6.5 1.4-13.3 3.5-20.7-.4-4.3-2.2-11-.1-16.5.5-5 .5-10 1.7-15 2.1-2.8.3-6.4 2.1-7.7-2.8-.1-.4-2.4-.9-2.9-.4-4.3 3.9-9.4 1.4-14.1 2.2-5 .8-10 1.4-15.1 1.9-2.4.2-4.8.3-7.2 0-10.6-1.1-21.1-1-31.5 1.1-2.3.5-5 .9-7.2.3-10.7-2.9-21.1.1-31.5 1-2.1.2-4.1.7-6.1 1.3-4.5 1.3-8.8 3.8-13.1-1-1.1-1.3-4.3-1.6-6.1-1.1-6.1 1.7-12.7.3-18.7 3.6-2.9 1.6-7.4 3.4-10.7-1.1-.6-.9-3-.8-4.5-.7-6.2.7-12.7.3-18.4 3.7-1.3.8-3.1.8-4.7.8-4.5.2-9 .5-13.6.5-2.6 0-5.6.1-7.9-1-4.7-2.4-9.3-1.5-13.6 0-7.5 2.6-14.7 3.9-22.7 2.1-4.4-1-8.8-1.1-13.8.9-8.6 3.4-18.5 6-27.4 2.3-5.1-2.1-9.4-1.7-14-1-3.6.6-7 2.3-10.4 3.6-9.1 3.5-18.4 2.5-27.6 1.1-3.2-.5-5.6.1-8.8 1.2-6.6 2.4-14 3.2-21.2 3.5-5.4.2-10.9.8-16.5-1.4-2.9-1.1-7-.3-10.2 2.7-5.1 4.8-11.5 5.6-18.4 4.1-6.4-1.4-12.6-3.3-19.5-2.8-4.3.4-6.5 3.5-10.3 4.6-8.8 2.4-16.6 3.6-25.6 0-4.5-1.8-12-.8-16.2 1.9-6.4 4-12.7 3.6-19.2 3.4-4.3-.1-8.6-.8-12.9-.5-4.4.3-8.8 1.1-13 2.1-12.4 2.8-14.8 2.6-25.3-2.2-1.5 1.1-2.9 2.9-4.5 3.2-4.7.8-8.7 2-13.1 4.5-4.3 2.4-10.8 1-16.3 1-5.5-.1-11.1-.9-16.6-.7-2 .1-4.2 1.8-5.8 3.3-1.1 1-1.6 2.8-2.7 5.1-.9.2-3 .5-5.1.8-6.9-7.6-13.6-15.3-20.3-23z" fill="#282a29"/></svg>