<?xml version="1.0" encoding="UTF-8"?> <!-- Generator: Adobe Illustrator 22.1.0, SVG Export Plug-In . SVG Version: 6.00 Build 0) --> <svg xmlns="http://www.w3.org/2000/svg" xmlns:xlink="http://www.w3.org/1999/xlink" id="Слой_1" x="0px" y="0px" viewBox="0 0 1068 67.6" style="enable-background:new 0 0 1068 67.6;" xml:space="preserve"> <style type="text/css"> .st0{fill:#282A29;} </style> <path class="st0" d="M0,43.1c4.4,1.2,8.7,2.1,13.3,0.1c2.5-1,5.8,0,8.7-0.3c20.9-2.2,41.7-4.6,62.6-6.7c8.1-0.8,16.3-0.8,24.4-1.4 c14.6-1.2,29.2-2.5,43.9-3.9c12.7-1.2,25.5-2.4,38.2-3.7c16.1-1.6,32.3-3.1,48.4-4.8c9.3-1,18.6-3.6,27.7-3 c14.2,0.8,27.5-3.9,41.3-4.4c11.6-0.4,23.1-2.5,34.7-3.4c4.5-0.4,9.1,0.7,13.6,0.4c8.2-0.6,16.4-1.9,24.6-2.6 c7.2-0.6,14.4-0.9,21.6-1.2c12-0.5,23.9-1,35.9-1.4c13.3-0.5,26.7-2,40-1.1c11.3,0.8,22.2-1.6,33.4-1.5c14.3,0.1,28.7-0.6,43-0.7 c15.7-0.1,31.4,0.1,47.1,0c6.6,0,13.2-0.7,19.9-0.8c9.9-0.1,19.8,0,29.7,0c15.7,0,31.4,0.2,47.1,0.1c21.8-0.1,43.7-0.3,65.5-0.8 C783.9,1.4,803.4,0,822.8,0c21.1,0,42.3,1.1,63.4,1.6C902.5,1.9,918.8,1.9,935,2c18.2,0.1,36.4,0.1,54.5-0.1 c9.7-0.1,18.2,3.3,26.7,7.3c5.8,2.8,12.2,3.5,18.5,4.5c1.4,0.2,3-0.9,5.1-1.5c0.2,1.7,0.3,3.1,0.5,4.7c4,0.6,2.5-2.6,2.8-4.5 c4.2,0.8,8.2,2.4,12.6,2.2c0.7,0,1.9,1.4,2.1,2.3c1.4,6.1,10.2,6.8,9.4,14.3c-0.9-1.6-1.8-3.2-2.9-5.1c-0.9,0.5-1.6,0.8-2.2,1.2 c-4.4,3-8.3,6.1-14.7,4.9c-21.3-4-42.8-6.6-63.7-12.7c-6.5-1.9-13.8-1.2-20.7-1.1c-13,0.2-26.1,0.9-39.1,1.4c-0.8,0-1.6,0.1-2.3-0.2 c-9.7-4.4-19.9-5.4-30.4-5.1c-1.9,0.1-4,0.2-5.6-0.6c-7.5-4-15.7-3.2-23.6-3.8c-24.8-2.1-49.7-1-74.6-0.2c-4.3,0.1-8.6,1.7-12.9,2.5 c-0.7,0.1-1.9,0.4-2.1,0c-2.9-4.5-7.4-2.5-11-2.3c-8.7,0.6-17.7-0.9-26.1,3.1c-0.6,0.3-1.6,0.2-2.3-0.1c-9.6-3.4-19-2.4-28.8-0.3 c-6.5,1.4-13.3,3.5-20.7-0.4c-4.3-2.2-11-0.1-16.5,0.5c-5,0.5-10,1.7-15,2.1c-2.8,0.3-6.4,2.1-7.7-2.8c-0.1-0.4-2.4-0.9-2.9-0.4 c-4.3,3.9-9.4,1.4-14.1,2.2c-5,0.8-10,1.4-15.1,1.9c-2.4,0.2-4.8,0.3-7.2,0c-10.6-1.1-21.1-1-31.5,1.1c-2.3,0.5-5,0.9-7.2,0.3 c-10.7-2.9-21.1,0.1-31.5,1c-2.1,0.2-4.1,0.7-6.1,1.3c-4.5,1.3-8.8,3.8-13.1-1c-1.1-1.3-4.3-1.6-6.1-1.1c-6.1,1.7-12.7,0.3-18.7,3.6 c-2.9,1.6-7.4,3.4-10.7-1.1c-0.6-0.9-3-0.8-4.5-0.7c-6.2,0.7-12.7,0.3-18.4,3.7c-1.3,0.8-3.1,0.8-4.7,0.8c-4.5,0.2-9,0.5-13.6,0.5 c-2.6,0-5.6,0.1-7.9-1c-4.7-2.4-9.3-1.5-13.6,0c-7.5,2.6-14.7,3.9-22.7,2.1c-4.4-1-8.8-1.1-13.8,0.9c-8.6,3.4-18.5,6-27.4,2.3 c-5.1-2.1-9.4-1.7-14-1c-3.6,0.6-7,2.3-10.4,3.6c-9.1,3.5-18.4,2.5-27.6,1.1c-3.2-0.5-5.6,0.1-8.8,1.2c-6.6,2.4-14,3.2-21.2,3.5 c-5.4,0.2-10.9,0.8-16.5-1.4c-2.9-1.1-7-0.3-10.2,2.7c-5.1,4.8-11.5,5.6-18.4,4.1c-6.4-1.4-12.6-3.3-19.5-2.8 c-4.3,0.4-6.5,3.5-10.3,4.6c-8.8,2.4-16.6,3.6-25.6,0c-4.5-1.8-12-0.8-16.2,1.9c-6.4,4-12.7,3.6-19.2,3.4c-4.3-0.1-8.6-0.8-12.9-0.5 c-4.4,0.3-8.8,1.1-13,2.1c-12.4,2.8-14.8,2.6-25.3-2.2c-1.5,1.1-2.9,2.9-4.5,3.2c-4.7,0.8-8.7,2-13.1,4.5c-4.3,2.4-10.8,1-16.3,1 c-5.5-0.1-11.1-0.9-16.6-0.7c-2,0.1-4.2,1.8-5.8,3.3c-1.1,1-1.6,2.8-2.7,5.1c-0.9,0.2-3,0.5-5.1,0.8C13.4,58.5,6.7,50.8,0,43.1z"></path> </svg> 