<svg fill="none" height="32" width="32" xmlns="http://www.w3.org/2000/svg"><g fill="#000"><path clip-rule="evenodd" d="M5.356 23.788a2 2 0 01.574 1.602 21.939 21.939 0 01-.796 4c2.79-.646 4.494-1.394 5.268-1.786a2 2 0 011.42-.148c1.363.363 2.768.546 4.178.544 7.992 0 14-5.614 14-12 0-6.384-6.008-12-14-12S2 9.616 2 16c0 2.936 1.234 5.66 3.356 7.788zm-.986 7.81c-.474.094-.95.18-1.426.258-.4.064-.704-.352-.546-.724.178-.419.34-.844.488-1.274l.006-.02c.496-1.44.9-3.096 1.048-4.638C1.486 22.74 0 19.52 0 16 0 8.268 7.164 2 16 2s16 6.268 16 14-7.164 14-16 14a18.12 18.12 0 01-4.694-.612c-1.04.526-3.278 1.484-6.936 2.21z" fill-rule="evenodd"/><path d="M12.929 10.44c.452.62.984 1.413 1.595 2.382.15.254.127.567-.072.94-.063.127-.254.48-.571 1.06.063.095.137.194.22.297l.268.328c.095.115.198.232.31.35.11.12.228.245.35.376.124.13.253.264.388.399.698.698 1.277 1.214 1.738 1.547.516-.301.869-.5 1.06-.595a1.17 1.17 0 01.57-.167.69.69 0 01.37.096c.706.428 1.508.96 2.404 1.595a.766.766 0 01.286.5c.024.214-.043.444-.202.69a7.076 7.076 0 01-.37.477 8.465 8.465 0 01-.755.785c-.337.318-.613.476-.828.476h-.023c-.818-.031-1.727-.353-2.727-.964s-2.095-1.508-3.285-2.69C11.282 15.94 10.063 13.937 10 12.31c0-.214.159-.496.476-.845.31-.334.568-.584.774-.75.206-.16.373-.282.5-.37a.977.977 0 01.583-.178c.254 0 .453.091.596.274z"/></g></svg>