<svg fill="none" height="32" width="32" xmlns="http://www.w3.org/2000/svg"><path d="M7.81 1.174c1.206 1.651 2.624 3.768 4.254 6.35.402.677.338 1.513-.191 2.508-.17.338-.677 1.28-1.524 2.825.17.254.365.519.588.794s.46.566.714.873.529.619.825.936l.937 1c.328.35.672.704 1.031 1.064 1.863 1.862 3.408 3.238 4.635 4.127 1.376-.804 2.318-1.334 2.826-1.588.529-.296 1.037-.444 1.524-.444.38 0 .709.085.984.254 1.883 1.143 4.02 2.56 6.412 4.254.424.339.678.783.762 1.333.064.572-.116 1.185-.54 1.841-.169.254-.497.678-.983 1.27-.445.55-1.117 1.249-2.016 2.096-.9.846-1.635 1.27-2.207 1.27h-.063c-2.18-.085-4.603-.942-7.27-2.572-2.667-1.63-5.587-4.021-8.762-7.175C3.418 15.841.169 10.497 0 6.16c0-.572.423-1.323 1.27-2.254.825-.89 1.513-1.556 2.063-2 .55-.424.995-.752 1.334-.984C5.11.603 5.63.444 6.222.444c.677 0 1.207.244 1.588.73zM5.778 2.476A19.44 19.44 0 003.365 4.54c-.762.761-1.206 1.322-1.333 1.682.17 3.81 3.211 8.667 9.127 14.571 5.915 5.905 10.788 8.963 14.619 9.175.317-.127.857-.582 1.619-1.365a22.147 22.147 0 002.063-2.444.75.75 0 00.127-.238.342.342 0 000-.207c-2.434-1.693-4.487-3.069-6.158-4.127-.17 0-.381.064-.635.19-.085.043-.424.234-1.016.572s-1.175.656-1.746.953l-1.048.634-1.047-.698c-1.334-.91-2.974-2.36-4.921-4.35-1.905-1.925-3.333-3.565-4.286-4.92l-.762-.984.635-1.111 1.524-2.762c.127-.254.19-.466.19-.635a182.203 182.203 0 00-2.095-3.254A164.918 164.918 0 006.286 2.35h-.064a.782.782 0 00-.444.127z" fill="#000"/></svg>