<svg fill="none" height="24" width="64" xmlns="http://www.w3.org/2000/svg"><g fill="#000"><path d="M17.905 11.35c-.023.078-.034.166-.056.232-.034.088-.08.177-.113.265.068.011.068.011.17-.154.044-.067.078-.155.112-.232a.26.26 0 00.079.011c.011.11.023.21.034.309 0 .022.023.033.034.044.079.066.079.11-.023.176-.022.011-.034.033-.034.033-.011-.022-.011-.033-.022-.044-.136.1-.271.188-.44.298.01-.11.022-.176.022-.276-.102.166-.18.31-.27.464-.08-.045-.114-.011-.159.066s-.113.143-.192.22c.045-.01.09-.022.158-.033-.056.11-.113.188-.158.287.011.011.011.011.023.011a.177.177 0 00.045-.077c.022-.022.034-.022.056-.033.012.022.034.044.034.066-.034.11-.068.231-.102.342-.067.176-.146.353-.191.54.01-.01.033-.022.033-.033.046-.1.102-.187.125-.287.033-.121.033-.132.135-.132-.034.154-.034.298-.09.452a3.382 3.382 0 01-.203.53c-.023.055-.113.088-.158.12l-.034-.032c.056-.177.113-.353.169-.519-.045-.01-.09 0-.113-.022-.022-.022-.034-.077-.034-.11.012-.044.045-.1.068-.154-.011-.011-.034-.022-.034-.033-.022.033-.045.044-.056.077-.046.077-.102.154-.147.242.101.078.034.166-.034.254a.59.59 0 00.124.022c-.011.033-.022.066-.022.11a3.61 3.61 0 00-.034.199c-.068.044-.136.11-.215.176.034.066.09.133.08.188 0 .088-.057.176-.08.242-.079-.044-.158-.066-.203-.12-.023-.023-.113-.067-.034-.133.011-.011.011-.033.023-.055-.012-.011-.023-.011-.034-.011-.023.077-.034.154-.068.242.068 0 .102.011.158.011-.034.088-.068.155-.09.232-.011.033-.011.066-.011.1l.101-.034a.197.197 0 00.057-.044 4.31 4.31 0 01-.034.243c-.011.022-.034.033-.068.066-.022.022-.056.022-.056.033-.023.143-.034.286-.045.419 0 .022.01.044.033.066.012-.033.023-.088.034-.121a.087.087 0 01.045-.022c.023 0 .034.022.034.033.08.132 0 .264-.034.397-.022.088-.067.176-.112.297v-.11c-.012-.01-.023-.01-.034-.01-.023.076-.045.154-.08.23-.01 0-.022 0-.022-.01-.023-.022-.034-.044-.056-.077-.012.033-.023.066-.046.099a.326.326 0 00-.045.286c-.034.023-.067.034-.079.045.012.077.012.132.012.198h.022a2.04 2.04 0 00.045-.243c.08.045.113.298.09.364a.333.333 0 00-.033.144c-.023.088-.034.165-.18.11a.636.636 0 00.022-.154c0-.044-.012-.11-.012-.166-.045.033-.09.055-.158.1a1.1 1.1 0 00.034-.243c.012-.11-.135-.055-.158-.143h-.034c-.034.154-.079.308-.124.463.011.01.023.01.034.01.034-.065.056-.132.09-.209.102.066.113.155.102.265.022-.033.045-.055.056-.088.068.121-.011.408-.101.485a.086.086 0 01-.045.022c-.068.011-.068.011-.057.1a.303.303 0 01.045-.056c.057.044.08.077.034.188-.034.088-.011.132.068.176.022.011.045.033.034.044-.023.11-.034.22-.08.32v-.32c-.044-.01-.09-.01-.146-.01-.023 0-.068 0-.068.021-.045.132-.113.265-.09.408.011.033.068.055.124.088-.034.033-.068.089-.113.133 0 .01.034.022.045.033a4.68 4.68 0 00-.022.386c.011.22-.102.408-.192.595 0 .011-.023.011-.023.011.045.122-.101.221-.045.353.023.067-.034.155-.034.243-.011.154 0 .309-.124.43-.034.033-.034.11-.045.176-.023.045-.045.1-.08.155v.121c.08.133 0 .254-.022.375-.011.022.012.033.012.066-.012.022-.034.044-.034.066.022.11.022.11-.023.188-.034.077-.034.143-.056.254a.716.716 0 00-.113-.034c-.057-.01-.113-.022-.17-.01a3.275 3.275 0 00-.316.077c-.09.022-.169.033-.248.033-.192-.011-.384-.066-.576.055-.034.022-.135-.044-.203-.077.147-.364.237-.728.226-1.114-.011-.077.034-.166.045-.243.011-.033.011-.088.023-.121.056-.22.101-.452.079-.684a.387.387 0 01-.023-.11c.011-.11 0-.22.102-.298.01-.01.01-.033 0-.044-.012-.022-.034-.044-.034-.055.056-.155.079-.32.056-.485 0-.022.023-.045.023-.067.011-.044.056-.099-.023-.132-.011 0-.022-.044-.022-.066.022-.132.033-.265.067-.397.012-.022.068-.033.08-.066.022-.055.022-.121.033-.199.023-.11.034-.22.034-.33.011-.067-.011-.122-.011-.188a.38.38 0 01.056-.22c.023-.023-.022-.089-.034-.122.125-.044.068-.165.102-.265.034-.099.045-.198.056-.297.012-.044-.022-.1-.033-.144-.012-.11-.023-.21-.012-.308.023-.11.034-.232.102-.31.158-.209.147-.418.113-.65a.79.79 0 01.101-.474c.023.033.023.044.034.066 0-.033.012-.066 0-.077-.09-.055-.034-.11 0-.166a.508.508 0 00.057-.386c-.023-.11.011-.22.022-.341.012-.122.045-.221.057-.331.011-.078.045-.122.113-.144 0 .033.01.055.01.089.012-.012.024-.012.024-.023.022-.132.033-.264.033-.396.012-.056-.033-.122-.033-.188a.961.961 0 01.09-.342c0 .022.011.033.022.044.147-.22.136-.485.17-.739.022-.198.079-.386.101-.584.034-.265.057-.519.09-.783.012-.165.102-.287.159-.43l.101-.298c.012-.022.012-.044-.011-.044-.136-.044-.057-.199-.147-.287-.192.066-.395.132-.587.199.011-.022.011-.033.011-.044-.045-.034-.101-.056-.146-.089-.012.011-.012.022-.023.022l.068.067c-.102-.012-.18-.012-.271-.023 0-.022 0-.044.011-.088-.282.077-.564.155-.858.243 0-.033-.011-.066-.011-.1a2.217 2.217 0 00-.17-.032.382.382 0 01-.022.11c.034.01.079.01.124.022-.068.055-.113.11-.192.066l.011.011v-.022c-.067-.011-.146-.033-.214-.011-.056.022-.102.088-.158.143.045.011.09.022.124.022v.022h-.113c-.011.034-.011.056-.022.078.101.165.27.088.406.11.011.011.011.022.023.033-.023 0-.034.011-.057.011.011.011.011.022.023.033l.372-.132c.023.088.012.165-.113.198l.023.022c.045-.022.102-.044.158-.077.034.044-.011.155.09.199-.022.044-.033.11-.079.121a7.027 7.027 0 01-.429.176c-.056.022-.124.078-.192 0-.112.056-.225.122-.338.166-.012.01-.045-.011-.068-.022-.011-.011.011-.033-.011-.077-.023.022-.034.044-.057.066-.022.033-.034.055-.034.088a.237.237 0 00-.067-.044c-.09-.088-.09-.088-.023-.177-.101.033-.192.033-.26.067s-.09.022-.146-.011c-.034-.023-.102-.023-.147-.034-.034-.01-.068-.01-.09-.021-.068-.034-.102-.023-.125.055-.01.033-.067.055-.09.044-.068-.033-.113.01-.18.022a.15.15 0 00-.102.066c-.034.044-.102.1-.18.033-.035-.022-.08-.022-.125-.011s-.102.022-.158.033c-.011-.022-.034-.055-.056-.1-.102.012-.17.045-.147.166-.068-.01-.124-.01-.17-.022-.01.011-.01.022-.01.033.1.066.191.133.146.265.135.011.237-.055.35-.1.079-.032.147-.077.226-.088.056-.01.124.022.192.022-.012.023-.034.067-.023.1s.068.033.102.055c.067.066.113.044.158-.022 0 0 .045.01.045.033.034.11.022.176-.09.243-.012 0-.012.01-.023.033l.102-.033c.09.055.067.099-.023.154-.113.077-.215.165-.339.254-.034.033-.09.033-.124.044a.3.3 0 01-.034-.144c-.067.1-.124.122-.214.066-.012-.01-.034-.022-.045-.01-.09.044-.192.099-.271.154-.068.044-.08.1 0 .154a.06.06 0 01.034.055c.022.045.033.11.067.177.034-.033.045-.055.057-.077.034.044.079.099.113.154a.451.451 0 01.01.177c-.01.055-.044.11-.078.187l-.09-.066c-.034.066-.09.11-.113.176a.898.898 0 00-.034.243c-.023.11.068.143.135.176.023.067.045.11.057.177.011.044.011.11.011.154h.034c.011-.044.011-.099.011-.143.011-.011.034-.011.034-.011.034.044.08.1.08.154a.89.89 0 01-.024.342c-.01.033-.079.044-.112.066-.012-.01-.012-.022-.023-.022-.034.11-.079.21-.102.32-.01.022.023.055.034.066.102.044.09.155.124.243-.01.121-.01.242-.022.364h.045c.023-.122.045-.254-.034-.364.18.022.192.033.18.21 0 .088.035.187-.078.242-.012.011-.012.033-.012.044a.2.2 0 00-.056-.044c-.034.066-.056.11-.09.165-.034.034.067.1-.034.133v.11h.056c.136.386.147.772-.034 1.158.08.055.08.165.09.276.012.077.046.143.08.231.034-.033.045-.066.079-.11.079.353.022.684-.023 1.015.011.01.034.033.034.055 0 .154.057.275.18.364.012.01.035.022.035.033.01.033.022.066-.034.044-.012 0-.045.044-.034.055.068.088-.045.22.079.298.034.022.045.099.045.154-.011.1 0 .132.08.232.022.022.022.066.01.088-.022.066-.034.132-.056.198-.011-.01-.034-.022-.068-.044.068.133.034.243.045.353.023.133.08.265.113.386.011.022-.011.044 0 .077.023.078.034.144.057.221.011.033.034.055-.012.088-.01.011.023.088.034.122.023.055-.079.286-.147.297-.033.011-.079.022-.112.033-.113.056-.238.078-.35 0a2.12 2.12 0 01-.226-.11c-.113-.044-.17-.132-.192-.265-.023-.132-.045-.253-.045-.386 0-.088-.068-.176-.124-.264-.034-.044-.057-.122-.147-.1-.011 0-.034-.022-.034-.022-.034-.132-.09-.264-.113-.397a.534.534 0 010-.297c.034-.089-.023-.199-.034-.298-.056 0-.147-.11-.17-.188-.033-.143-.067-.275-.078-.419-.011-.099.011-.187.022-.286.012-.055.046-.11.046-.166a.232.232 0 00-.09-.121c-.125-.1-.148-.254-.159-.397a2.88 2.88 0 010-.54c0-.045.045-.089.068-.133-.124-.121-.18-.287-.203-.474a4.402 4.402 0 01-.023-.397c0-.088.034-.176.023-.265-.023-.154-.057-.308-.08-.474-.01-.11-.01-.232-.01-.353-.012-.21.033-.408-.046-.617-.034-.089-.034-.199-.034-.298 0-.155.012-.298.023-.452 0-.022-.011-.033-.023-.044a.426.426 0 01-.09-.276c0-.077-.124-.066-.237-.033-.158.033-.339.154-.508.033.011.1-.011.1-.113.1-.045 0-.102.054-.158.087a.145.145 0 00-.045.033c-.034-.055-.045-.11-.08-.176-.033-.055-.169-.011-.236.066-.034.044-.09.088-.147.144.011.022.034.044.045.088-.022.01-.034.022-.079.033.102.022.18.044.271.066a1.105 1.105 0 00-.102.11c.09-.033.17-.066.226-.055.068.011.124.077.17.1.09-.012.169 0 .237-.012a.422.422 0 00.27-.187c.102.033.102.033-.01.287a1 1 0 00-.159-.078c.102.166-.022.199-.101.265-.09.066-.181.143-.271.199-.034.033-.102.033-.147.044-.102.01-.192.022-.294.022-.01 0-.022.01-.033.022-.09.044-.17.11-.26.154-.034.022-.057.022-.09.022-.046.011-.113.011-.17.022 0-.01.012-.033.012-.055l-.012-.01c-.09-.023-.18-.067-.26-.045-.146.033-.293.1-.462.154a.47.47 0 01.124.078c-.034.044-.068.077-.09.11a1.905 1.905 0 01-.068-.154h-.023a.631.631 0 00-.022.143c.034.033.056.066.113.11.033 0 .101-.022.158-.01.079.032.135.076.203.12.011.011 0 .056-.011.067-.113.11-.249.21-.373.308a2.298 2.298 0 01-.294.199c-.101.077-.214.11-.35.055-.022-.011-.045-.022-.045-.011-.067.077-.18.066-.27.11-.08.033-.17.044-.272.078 0-.012 0-.045-.01-.045-.069-.033-.136-.143-.227-.033 0 0-.01-.01-.022-.01-.08 0-.147.021-.158.099-.023.11-.136.044-.192.12a.185.185 0 00.101.034c.057.01.113.01.17.033.09.044.079.254 0 .342-.192.187-.43.298-.678.397-.113.044-.237.088-.35.154-.146.089-.304.055-.462.066a.25.25 0 00-.17.1c-.011.022-.034.022-.045.033-.023.033-.113.033-.079.11-.034.011-.079.022-.113.033.102.088-.034.121-.068.177-.045.099-.113.176-.158.275-.022.033 0 .089-.056.089-.011 0-.023.033-.034.044-.034.176-.09.342-.124.518-.023.088-.023.176-.034.265-.011.077-.011.165-.056.231l-.012.011c-.034.155-.079.309-.113.474-.034.122-.045.221-.079.342-.011.011-.011.033-.011.033.068.056 0 .1-.023.155-.033.121-.079.242-.112.364-.012.033 0 .077 0 .11 0 .022.01.033 0 .044-.08.166-.057.331-.068.496-.011.1-.057.199-.09.298-.046.188-.102.386-.125.574-.022.11.012.22-.011.33-.034.177-.079.342-.203.486-.102.121-.203.242-.237.408-.012.055-.045.11-.08.187-.022-.01-.033-.022-.078-.033-.034.055-.057.11-.08.166-.067.187-.146.22-.315.099-.023.022-.034.044-.057.077-.011-.011-.022-.011-.034-.011.012-.088.012-.176.012-.265a.743.743 0 00.01-.22c-.01-.033-.044-.088-.09-.1-.146-.044-.191-.088-.203-.242-.011-.188 0-.375 0-.563 0-.154-.011-.297-.011-.452.011-.253.034-.485.045-.739.011-.12.011-.264.023-.397.011-.297.067-.64.113-.97.022-.132.022-.265.045-.386.034-.176.09-.353.124-.54.034-.21.079-.408.113-.63.022-.098.034-.187.056-.275.034-.132.08-.264.113-.397.011-.01 0-.033.011-.033.068-.088.034-.176.012-.265-.034-.099-.124-.143-.215-.187-.056-.033-.101-.121-.18-.143-.068-.033-.113-.089-.204-.144.17-.077.317-.121.463-.187.09-.033.18-.077.271-.11.057-.023.113-.045.18-.067.012-.01.035-.022.035-.033.011-.121.113-.21.101-.353-.01-.121.046-.264.09-.386.046-.143.102-.297.181-.43.113-.176.113-.386.147-.584.023-.1.045-.199.09-.287.136-.276.192-.573.26-.871a1.33 1.33 0 01.18-.408c.046-.077.091-.166.125-.254.011-.033.045-.055.068-.088.022-.077-.09-.165.022-.243.011-.01.011-.033.011-.033.034-.143.057-.287.09-.419.012-.033.035-.066.057-.11.068-.11.124-.21.18-.331.012-.022 0-.055.012-.088.068-.22.124-.43.192-.65.011-.045.057-.078.08-.111.033-.055.044-.11.078-.177.08-.176.102-.352.158-.54.045-.154.102-.298.147-.452.011-.033.068-.055.09-.088.045-.078.09-.155.124-.22.102-.166.08-.343.057-.53a.717.717 0 01.101-.475c.012-.022.057-.022.08-.022.022.011.033.034.045.078.056-.21.113-.42.158-.629-.068-.033-.09-.022-.102.044-.011.022-.022.044-.034.055l-.034-.01c0-.023 0-.045.012-.078.022-.1.045-.198.079-.33.022.054.034.087.045.12.045-.143.147-.253.124-.396 0-.012.045-.023.068-.034.011.011.011.022.011.034.023-.023.034-.045.045-.067a.41.41 0 00.113.022c.011.022.011.056.023.122.034-.089.079-.166.113-.243.01 0 .033.011.067.033-.034-.077-.045-.121.045-.11.012-.088-.169.033-.101-.11a.905.905 0 01-.158.022c.022-.144.045-.265.068-.408a.286.286 0 00-.068-.232c-.011-.011 0-.044.011-.077a.166.166 0 00.08.022c-.012-.011-.012-.022-.023-.022.067-.033.124-.077.214-.11.045.044.113.099.18.143-.044.044-.157.022-.169.121.046.011.08.011.125.022-.034.055-.068.1-.113.166-.023-.044-.023-.066-.034-.077-.034.022-.08.033-.09.044 0 .044.01.088.01.11.012.077-.112.187.068.22.034-.055.068-.11.102-.176-.011-.011-.022-.011-.034-.022l-.045.044c0-.033.011-.044.011-.077.102.022.136-.022.125-.121-.012-.034.022-.067.022-.11.011-.056.011-.111.011-.166.046-.055.09-.11.136-.177a.387.387 0 00.045-.099c.034-.044.08-.088.113-.121.034-.033.045-.088.09-.155.023-.066.045-.154.08-.253.022-.055.044-.11.067-.177l.102-.264c.045-.1.09-.21.158-.298.113-.154.113-.33.203-.485.101-.199.18-.408.27-.629.057-.121.148-.232.193-.353.056-.132.079-.276.135-.408.057-.143.136-.287.203-.43.034-.077.034-.165.057-.243.011-.033.034-.077.045-.11a7.84 7.84 0 01.192-.474c.034-.077.034-.165.068-.243.034-.088.056-.176.09-.264.045-.144.09-.276.124-.42S7.124.423 7.18.29c.045-.11.158-.187.282-.22.057-.022.113-.044.158-.044.08 0 .17.033.226.01.136-.043.249-.054.373.012.135.066.27.121.395.21.09.055.158.154.237.22.045.033.056.11.17.11.078-.01.157.077.214.133.022.022.011.077.011.132.09-.022.102.033.102.11 0 .11.056.21.158.276.034.022.045.066.045.1 0 .23-.011.473-.023.705 0 .033-.022.055-.034.077-.033-.01-.056-.01-.09-.01 0 .032 0 .043.011.076.012.044.034.089.046.155.01-.011-.012.01-.023.033.023.01.045.01.09.022.023.11.057.231.08.353.01.022-.012.044-.035.055-.112.055-.169.132-.135.265-.113.066-.203.165-.339.033-.034.099-.022.176.057.21.079.043.079.11.079.176.237-.022.35.099.35.32a.777.777 0 01-.09.11.425.425 0 00-.17-.011c-.034.01-.079.033-.09.055-.034.055-.057.121-.102.198a.39.39 0 01-.079-.099c-.011.088-.034.155-.022.21a.519.519 0 00.09.198c.022.055.045.11.079.166a.669.669 0 00.102-.045c.045.1.112.199.158.298.01.033-.023.088-.034.122-.023.044-.034.099-.045.132-.034-.033-.068-.044-.09-.077-.136.055-.091.176-.102.275-.034-.01-.068-.01-.102-.022.045.055.102.122.135.177-.033.088-.191 0-.169.121.068-.01.136-.033.192-.033.034.066.068.121.102.176.022.034.056.056.067.1.023.055.046.088.113.088.034 0 .068.033.09.066.023.044.034.11.046.177-.012.01-.034.01-.057.01v.11c-.011 0-.022.012-.022.012-.023-.088-.045-.188-.068-.243a4.842 4.842 0 01-.124.232c-.011.01-.023.022-.034.022-.17 0-.136.1-.113.21.023.088-.023.176.09.231 0 .011.012.022.023.022.113-.022.124.1.147.154.022.067.034.1.079.1.022.088.045.165.067.242 0 .022-.01.067-.022.067-.057.022-.113.033-.113.11 0 .01-.011.033-.023.033-.079.022-.09.088-.112.143-.046.077-.09.11 0 .199.033.044.01.154.01.242 0 .022 0 .033.012.056.034-.034.068-.056.102-.078.034.033.045.055.067.078.034.033.09.066.113.11.034.055.08.121.102.187.011.022.011.055 0 .055-.102.022-.034.133-.09.155-.125.088-.147.21-.181.342 0 .01-.011.01.011-.011.045.099.09.176.136.242.045.033.09.044.113.077.045.045.09.1.124.144.011.022.011.033.011.066 0 .022 0 .055.011.066.09.066.023.155-.01.188-.057.066-.057.22-.215.165.146.1.113.155.113.199.01.099.022.21.158.231.01 0 .01.022.01.022.012.122.091.188.193.265.034.01.124-.1.113.044.022 0 .034.011.045 0 .022-.022.034-.055.045-.077.282-.055.553-.143.768-.353-.023-.022-.034-.033-.068-.055.056-.033.124-.088.158-.077.113.044.147-.055.203-.1.102-.088.17-.187.305-.253.09-.033.17-.066.248-.089.08-.022.136-.088.215-.11.147-.044.293-.1.451-.132.046-.011.113.022.17.022.158.01.27-.088.417-.121.08-.022.17-.067.159-.177 0-.033.033-.055.056-.077.158-.088.316-.176.485-.243.09-.033.147-.11.215-.154.09-.055.192-.088.27-.121.193-.078.373-.155.588-.177.113-.01.203-.154.203-.287.011-.231.011-.474.045-.705.023-.133.113-.265.17-.386.034.055.079.132.101.132.068-.022.136.11.203 0 .034-.066.159-.033.215.033.034.033.068.077.113.11l.305.232c.034.022.079.022.101.044.045.066.09.143.136.232.079-.044.158-.1.26-.144a6.08 6.08 0 01.677-.253c.158-.044.305-.067.463.033a.327.327 0 00.045-.088c.124-.056.305.066.418-.1.033.011.067.011.101.011-.011.033-.034.077-.034.11-.034.012-.079.012-.124.023v.022h.17c.01.01.01.01.01.022-.09.044-.18.121-.27.132-.17.022-.316.088-.463.165-.057.034-.136.034-.203.056a2.96 2.96 0 00-.237.077c-.034.044.022.143-.08.198-.056.033-.09.11-.135.188.034.01.09.022.113.033-.011.077-.011.132-.023.187-.01.033-.045.067-.09.11 0 .012.034.023.034.034-.023.21-.034.408-.056.617-.012 0-.012-.01-.023-.01-.023.043-.068.11-.045.132.056.11.011.22.022.32.023.187-.113.308-.192.452-.022.033-.067.044-.101.066-.113.088-.147.198-.136.342.012.033-.01.088 0 .11.034.11.125.1.215.066v.11c.113-.154.237-.297.35-.44.011.01.022.01.034.01-.012.044-.012.1-.023.144.057-.044.113-.089.18-.122.012 0 .012.011.023.011-.045.11-.09.21-.124.31a.946.946 0 01.18-.09c.023-.01.046.012.069.023a.214.214 0 00.214.011c.034-.033.045-.1.068-.154.011-.033 0-.078.022-.1.102-.099.113-.21.113-.341 0-.023.023-.034.023-.078-.023.011-.034.033-.057.033a.343.343 0 01-.113.045.55.55 0 00-.079.033c-.01 0-.01.022-.01.022-.181-.022-.283.22-.486.143-.034-.077.022-.198.113-.265-.068-.044-.136-.033-.136.033.011.122-.09.133-.17.166-.044-.143.035-.232.102-.342.046-.077.113-.154.181-.22.045-.067.102-.122.158-.188.023.033.045.088.057.077a.86.86 0 00.18-.055c.023-.011.045-.033.068-.044.011.033.011.044.022.088.09-.033.159-.088.136-.243.102.1.17.155.293.089.136-.078.012-.199.08-.276l-.034-.033c-.057.055-.125.11-.192.165-.102-.11-.158-.22-.045-.364-.057.011-.09.033-.113.022-.08-.022-.09-.099-.012-.187l.192-.22c.068-.1.124-.056.203 0-.045-.144.068-.166.147-.21a.599.599 0 00.09-.077c.034-.033.09-.066.125-.089.022 0 .056.034.09.067.023-.011.045-.033.09-.056.023-.01.046-.01.057-.01-.011.022 0 .044-.011.077a.305.305 0 01-.057.066c.271.165.44.01.655-.133-.023.056-.034.11-.057.166.012 0 .012.01.012.01.045-.054.101-.11.146-.176.012.012.023.012.023.023-.011.033-.011.077-.011.11.068-.033.113-.066.192-.11v.11c.079-.022.158-.033.237-.055-.034.066-.045.11-.08.165.012.011.012.011.012.022.102-.088.192-.165.294-.242.01.01.01.022.022.022.011-.033.011-.11.034-.11.045-.012.102.01.158.01.045.011.102 0 .17 0a.701.701 0 00-.09-.121c.033-.066.056-.121.09-.187-.012-.011-.023-.011-.034-.023-.215.067-.34.254-.475.409-.01-.011-.022-.023-.033-.023.09-.154.169-.297.27-.463-.045.033-.101.066-.124.1-.067.066-.113.033-.146-.034-.046.034-.136.034-.159.11-.01.012-.022.034-.033.034-.147-.033-.17.11-.249.176-.022.022-.045.033-.079.055-.011-.033-.022-.055-.034-.077s-.034-.022-.067-.033c.033-.033.067-.044.09-.066-.011-.044-.011-.088-.011-.154-.034.033-.046.055-.068.077-.045.066-.102.11-.203.066-.034-.022-.09.033-.147.044-.011-.011-.011-.033-.034-.066-.023.01-.056.033-.09.044.068.132.068.154-.034.165-.023 0-.034.011-.045 0-.102-.066-.136-.055-.226.045-.068-.166.18-.188.147-.331-.102-.044-.113.066-.17.11-.01-.1-.079-.188.023-.276.09-.088.18-.165.27-.253a.557.557 0 00.091-.078c.09-.088.158-.22.316-.165a.19.19 0 01-.034-.077c.034-.066.192-.055.26-.011.034-.044.057-.1.09-.166-.079-.044-.033-.099.034-.143.08-.044.158-.1.237-.143.012-.011.023-.011.034-.022.034-.155.192-.155.294-.221.113-.066.226-.11.35-.154.034-.022.09-.045.124.033.023.044.09.099.135.088.09-.011.102.088.17.088a.565.565 0 01.192.066c.056.033.101.11.158.166.034.033.09.055.135.088.17.132.339.276.497.408.068.044.158.077.214.132.068.067.125.155.181.232.023.033-.056.132-.101.132-.102.011-.192.033-.192.166h-.057c-.056-.011-.147-.033-.158-.011a.675.675 0 00-.079.21c0 .098-.045.22.113.275.034.01.034.11.034.176a.769.769 0 01-.057.243c-.033.055-.101.1-.146.143a.613.613 0 01-.068-.088c-.26.132-.237.342-.192.574.011.033 0 .055 0 .11.068-.011.147-.033.192-.011.079.033.124.11.18.176.012.022.012.044.034.055a.413.413 0 00.102.045c0-.034 0-.067-.011-.1-.023-.066.045-.143.135-.121a.403.403 0 00.35-.066c.045-.033.113-.088.158.022.011.022.068.022.102.033.034.011.056.022.09.033.102-.077.215-.154.328-.243.022.011.045.033.09.056.056-.023.124-.045.214-.089v.133a.718.718 0 00.09-.1l-.022-.022c.057-.01.113-.01.17-.01.01.032.022.054.033.088.012-.011.023-.011.034-.023.034-.077.057-.165.18-.165.035 0 .057-.066.08-.11.011-.011-.011-.033-.023-.044-.022-.011-.045-.011-.056 0-.045.099-.102.066-.18.033-.035-.011-.091.055-.136.088-.023.022-.034.044-.045.044-.012.011-.046-.033-.046-.044.034-.077.057-.143.102-.232a3.48 3.48 0 00-.294.155c-.01-.022-.01-.044-.022-.1a.654.654 0 01-.08.045c-.078-.033-.078-.177-.214-.089.012-.066.023-.11.034-.165-.056.033-.113.055-.18.1-.034-.067-.057-.122-.09-.188-.046.033-.114.055-.181.099-.046-.055-.034-.176.033-.198.057-.023.113-.166.204-.034 0 0 .034-.022.045-.022a.41.41 0 01.113.022c.022-.11.135-.154.237-.198.011-.011.034-.011.045.011.113.088.214.033.339.011.01 0 .034-.011.034-.022.067-.11.079-.011.112.033.034-.033.08-.055.125-.088 0 .01-.012.022-.012.033.034.01.08.044.102.033.079-.033.147-.077.226-.11.034-.022.09-.011.146-.022.034-.133.159-.199.328-.232a1.665 1.665 0 00-.113.188c.011.01.011.022.023.022.079-.045.146-.089.214-.133.034-.022.09-.033.136-.055-.046.066-.09.143-.136.21.011.01.023.022.023.033.135-.066.27-.155.395-.22.034-.023.068-.045.079.021a5.657 5.657 0 00-.18.144c.135.01.214-.067.202-.166.034-.1.08-.176.181-.21.011-.01.011-.032.023-.077-.125.067-.226.11-.328.166-.09.044-.18.077-.27.11.033-.066.078-.121.123-.21-.067.023-.101.034-.124.045-.034-.122-.113-.144-.214-.055-.102-.045-.192-.089-.271-.11.011-.089.011-.144.011-.2h-.124c.034-.065.045-.11.079-.143.034-.055.079-.099.147-.088.034.011.079-.01.113-.022.022-.01.045-.022.056-.01.09.098.158 0 .237-.023.034-.011.09-.011.124-.022.023 0 .057.011.08 0 .09-.132.259-.044.372-.121.045-.033.101-.022.135.033.034.066.125.033.17-.033.045-.1.056-.11.192-.11.01.11.045.11.146.066.034-.023.068-.011.113-.011.034 0 .08.022.113.01.226-.088.373.067.542.177.113.088.237.187.339.287.192.21.372.43.553.65.023.022.011.067.011.1 0 .121.011.264.023.386 0 .01 0 .022-.011.033-.113.088-.068.231-.113.342a1.015 1.015 0 00-.068.264c-.023.122 0 .254-.034.364-.011.066-.068.133-.102.188-.01.022-.033.044-.033.055-.046.066-.09.143-.147.21-.09.11-.192.22-.282.33 0 .011.01.011.022.022 0-.033-.011-.066-.011-.099-.034.022-.08.033-.113.066-.034-.044-.057-.088-.102-.132-.034-.044-.113-.044-.124 0-.022.11-.079.242-.034.342.034.099.034.198.08.286.01.023 0 .045 0 .078.067-.033.123-.066.191-.089.012.011.012.011.023.011l-.17.232c-.112-.044-.237-.077-.338.033-.034.044-.09.077-.147.011-.113.11-.135.287-.327.342.01-.055.01-.11.022-.165-.034-.033-.158 0-.101-.11-.09.021-.147.066-.136.143.011.066.011.121.023.187.022.077.056.1.113.033a.237.237 0 01.067-.044c.034.066.057.11.068.177.023.055.023.12.034.21.034-.045.056-.09.102-.144.056.231-.034.463-.181.518.011-.022.011-.044.011-.066 0-.022 0-.033-.011-.044-.023.01-.034.01-.057.022-.056.033-.112.077-.18.1-.09.021-.18.021-.271.032v-.033c-.034.033-.068.044-.102.088a4.004 4.004 0 00-.056.386c-.011.033.022.067.034.11.067-.021.169.056.192.122.022.055.033.11.056.154 0 .011.011.033 0 .033a.719.719 0 00-.09.1c-.034.055-.068.033-.124.033-.057 0-.136.022-.17.066-.079.11-.203.088-.305.11l.034.1c-.135-.078-.146.11-.26.077 0 .01-.01.022-.01.033.044.044.1.099.157.143a.14.14 0 01.046.066c.033.044.067.11.101.155.09.099.09.242.011.342-.033.055-.056.132-.146.11-.045-.011-.102-.011-.136.01-.079.034-.158.078-.237.111-.011-.011-.011-.011-.011-.022-.023.033-.045.088-.08.121.012 0 .012 0 .023.011-.011.033-.022.078-.033.11-.012.045-.012.1-.023.144 0 .033.011.066.011.1 0 .01-.011.021-.011.032.045.067.102.122.158.177.023.022.045.044.045.077.011.165-.101.287-.27.309-.023.01-.046.01-.069.022-.079.033-.158.055-.237.088-.033.011-.079.044-.067.044.034.077-.046.166.034.22.01.012.01.023.01.034-.044.154.069.242.136.342.08.099.023.286-.101.342-.136.055-.26.11-.395.165-.147.066-.147.21-.023.32-.102.11-.09.265.045.386a.13.13 0 01.011.198c-.079.066-.158.133-.27.166s-.238.11-.283.231c-.034.066-.011.1.08.066a2.65 2.65 0 00-.023.287c0 .055.022.121.056.166.09.11.08.242-.045.297-.08.033-.17.044-.248.089-.068.033-.113.088-.17.143-.034.011-.124.033-.135.044-.012.055.011.121.034.188.09.143.09.242.022.374.045.023.124.045.124.067 0 .077-.033.143-.045.22l-.034.033c-.18-.022-.282.11-.417.188-.045.033-.09.066-.147.11.011.1.011.21.045.32.023.077.079.143.057.231a1.19 1.19 0 01-.09.276c-.035.077-.091.1-.148.055-.146.1-.282.177-.451.276.045.033.068.033.056.033-.022.1-.113.143-.034.243.023.022.012.077-.01.099-.057.11-.114.198-.046.33.011.034-.068.1-.09.144-.034.044-.068.11-.102.155-.023.033-.045.066-.056.066-.034-.011-.08-.033-.09-.055-.068-.155-.114-.298-.057-.475.068-.21.09-.419.124-.64.034-.165.068-.33.102-.484.034-.1.079-.188.113-.298.056-.177.112-.353.146-.54.023-.1.034-.188.113-.254.011-.011.011-.033.011-.044-.022-.033-.045-.078-.079-.11.012-.012.023-.023.034-.023.034.011.068.022.113.033.045-.176.102-.375.147-.562.034-.143.045-.287.09-.43.023-.088.045-.188.124-.243.181-.143.147-.353.249-.53.045-.076.034-.198.045-.297a.666.666 0 01.27-.463c.012-.011.024-.033.035-.044.045-.177.135-.342.113-.507-.023-.166.135-.243.135-.386 0 0 .045-.011.09-.011.034-.089.102-.21.136-.331.045-.133.079-.276.124-.42.011-.032.045-.054-.022-.077-.012 0 0-.077.01-.12a.492.492 0 01.035-.078c.011.022.034.044.056.1.034-.122.045-.243.113-.32.124-.155.124-.343.18-.508.023-.055.057-.121-.01-.187-.023-.011 0-.067.01-.1.035-.077.068-.143.114-.22.01.022.033.044.045.077.079-.154.158-.298.214-.452.045-.11.057-.243.102-.353.034-.121.079-.22.113-.342.045-.132.09-.276.135-.408.034-.1.08-.198.113-.309.023-.044.011-.099.023-.143.034-.132.101-.254.124-.386.056-.265.226-.496.237-.783 0-.044.045-.1.068-.143.034-.122.045-.243.056-.364.011-.044.136-.155.18-.155.023 0 .046.011.057.011.034-.099.057-.187.09-.275-.045.01-.09.022-.124.022 0-.044-.022-.1-.011-.144.023-.066.068-.121-.034-.176-.011-.011-.011-.033-.011-.033.056.01.113.01.17.01 0-.01.01-.021.01-.032-.022-.022-.033-.033-.056-.044.011-.012.011-.023.011-.023.057-.033.102-.066.09-.132 0-.022.012-.044.023-.055.023-.033.045-.044.08-.077.022.033.044.044.067.088h.011c.023-.11.034-.22.057-.33l.034-.1c.022-.088.034-.177.045-.265 0-.01-.057-.055-.068-.044-.135.066-.27.143-.406.21-.034.022-.045.033-.08.044-.101-.088-.112-.088-.236 0-.034.033-.113.022-.181.033.034-.044.056-.066.09-.11-.147-.034-.282-.1-.429-.056-.022.011-.034.011-.045.022-.124.133-.27.265-.395.409.011.01.011.022.023.033.045-.022.112-.033.158-.067.112-.077.135-.077.214.034.102 0 .147-.144.282-.056-.079.1-.158.188-.225.287a.218.218 0 00-.034.121c-.012.034-.012.078-.034.11a.3.3 0 01-.08.089c-.044.055-.1.077-.18.066a.137.137 0 00-.124.033c-.102.066-.18.144-.282.21-.023.01-.045.01-.057.022-.022-.044-.034-.1-.056-.133-.011-.01-.068.022-.102.033-.034.011-.068.034-.09.023-.124-.034-.215.033-.294.154v-.088c0-.022.012-.044.012-.055-.034-.089-.271-.122-.34-.067-.044.033-.1.078-.168.122-.012-.078-.023-.11-.023-.144-.124.011-.26.011-.406.022-.023.067-.068.155-.102.243-.023.077.068.187.158.187.034 0 .057-.033.09-.044.034-.022.046-.044.08-.077.022.033.045.066.09.121.079.023.18.034.293.056.034.01.045.044.068.077.011.022.011.044.023.044.022.011.045 0 .056-.022.113-.11.113-.11.203.022.012.011.023.011.034.022a1.38 1.38 0 01.124-.11.712.712 0 00.09.077c-.033.033-.067.044-.101.077-.034.044-.08.1-.113.154-.034.067-.068.144-.124.199-.034.033-.102.022-.17.033.034-.055.046-.1.08-.143-.113.055-.226.11-.34.143-.022.011-.067-.01-.09 0-.033.011-.078.022-.09.033-.056.121-.158.1-.248.088-.192-.033-.339.044-.373.232-.022.077 0 .154 0 .232a.8.8 0 00.102-.144c.034.044.056.077.079.11.034-.022.079-.033.113-.044.011.056.011.1.011.144.034.01.08.01.113.022-.022.176-.068.342-.237.43-.158.077-.327.077-.53.044-.034.033-.136.077-.181.143-.08.144-.192.265-.192.43 0 .011-.023.034-.034.045a.286.286 0 00.09.01c.012.023.012.045.012.045.045-.011.079-.011.112-.011.057 0 .125.01.181.01.034.188-.09.32-.192.453-.022.033-.124.066-.203-.011-.023-.022-.068-.022-.08-.011a4.506 4.506 0 00-.214.231c-.225-.066-.27-.066-.26.067.069.022.148.033.227.055a5.277 5.277 0 00-.023.44c.09.023.18.034.27.045-.033.1-.055.187-.078.254-.034.022-.08.033-.113.044a1.121 1.121 0 01-.034-.133c-.022.044-.034.089-.056.122-.068-.033-.113-.055-.158.044-.034.088-.09.198-.204.231a.14.14 0 00-.022.078c.022.143.034.286.045.419.011.044.011.099-.011.132-.09.176-.158.353-.362.42-.022.01-.033.032-.033.032.01.077.01.155.033.232.057.187.068.364.034.551-.022.088-.079.166-.113.254-.169.01-.304.231-.27.485.033-.01.056-.01.09-.022.034.033-.034.121.079.121 0 .022.011.044 0 .077-.011.034-.023.067-.023.089 0 .066-.011.11-.067.154-.068.066-.17.11-.181.232 0 .033-.057.066-.09.099v.297c-.023-.033-.023-.033-.046-.077 0 .12-.01.231.012.341.022.11.034.232-.045.342-.034.044-.08.077-.113.122-.034.044-.045.11-.068.165a.157.157 0 01-.192.088c-.023-.01-.045-.01-.068-.01-.09-.012-.18.065-.248-.023-.011-.01-.023-.01-.034 0-.102.088-.214.011-.316 0a.397.397 0 00-.294.077c-.045.034-.124.011-.192.011-.067-.187.046-.32.102-.474.034-.11.068-.21.09-.32.034-.165.08-.33.102-.485.045-.242.056-.496.124-.739.068-.264.023-.54.17-.783.01-.01.01-.022.01-.033.125-.044.091-.165.102-.264 0-.034-.01-.067.046-.1.033-.022.045-.11.056-.176.011-.033-.011-.077-.011-.11-.012-.034-.034-.089-.034-.122.022-.11.056-.22.068-.33.01-.122.124-.155.18-.243.045-.1.113-.177.102-.287-.011-.022.034-.055.056-.077.045-.033.08-.044.034-.11a.44.44 0 01.034-.563c.102-.1.203-.187.316-.276.102-.088.113-.187.034-.297-.034-.055-.056-.1.011-.144.012-.01.012-.055 0-.077-.135-.132-.146-.143-.022-.276a1.31 1.31 0 01.124-.132c.011-.011.034-.033.045-.033.09.022.113-.044.158-.1.045-.065.08-.11.113-.165.011-.022.011-.033.011-.066.012-.187.012-.364.023-.551 0-.044.034-.1.056-.144.125-.22.215-.463.237-.716.012-.1.08-.21.046-.298-.023-.1.01-.188.01-.276.012-.165.035-.32.17-.441-.056-.055-.068-.121-.011-.199.022-.022.022-.077.011-.11-.068-.165-.034-.342-.022-.507.01-.044.045-.088.056-.121.034-.166.068-.331.09-.497.012-.022-.011-.044-.033-.066-.068-.055-.09-.11-.034-.187a.067.067 0 00.01-.078.562.562 0 00-.078-.099c-.023.022-.045.033-.068.066-.113.11-.226.232-.418.199-.045-.011-.101.055-.146.088a1.526 1.526 0 00-.124.088.928.928 0 01.033-.143c-.011-.011-.011-.011-.022-.011-.034.044-.045.11-.09.143-.034.033-.08.033-.102.033a1.4 1.4 0 01-.045-.21l-.215.243c-.011-.01-.022-.022-.034-.022.023-.044.046-.088.08-.12-.012-.012-.012-.023-.023-.023a6.441 6.441 0 00-.294.265H19s-.011-.022-.034-.044l-.067-.1c-.034.033-.136.011-.147.11 0 .023-.023.045-.034.056-.147.077-.135.231-.215.353.09-.056.215-.044.271-.177.023-.044.09-.055.17-.11a5.95 5.95 0 00-.08.287c-.022.01-.044.033-.09.044.046.033.09.055.147.088.023-.033.068-.066.102-.11a.086.086 0 01.045-.022c0 .022.011.033.011.055a2.18 2.18 0 01-.067.154c.01.011.022.022.033.022.08-.088.17-.165.237-.264.09-.11.159-.232.238-.353.01-.022.033-.033.067-.033.023-.011.034.01.057.01-.012.023 0 .034-.012.045-.09.11-.18.231-.27.364.112-.011.214.066.27-.078.012-.022.068-.022.113-.033.012.022.034.044.034.067.011.033.045.088.034.099-.09.077-.102.22-.226.264-.034.023-.079.045-.113.089-.033.033-.079.066-.113.099-.09-.1-.079-.088-.191.044.01-.055.01-.11.022-.176-.079.033-.135.077-.192.077-.192 0-.237.143-.305.264-.022.033-.056.045-.112.089.033-.122.056-.21.09-.298-.011-.011-.023-.011-.034-.022-.023.033-.034.066-.056.088-.034.033-.034.121-.125.055-.011-.01-.09.033-.101.066s.034.078.056.133c-.045.088-.18.176-.135.353.034 0 .067 0 .124-.022-.023.033-.034.055-.034.088-.011.022 0 .033 0 .055.023-.011.034-.011.045-.022.08-.044.113-.11.158-.188.057-.12.18-.231.294-.342-.045.122-.18.232-.102.364.045.034.09.089.136.122.033.033.067.055.113.099-.023.044-.034.11-.125.121-.045.011-.079.066-.124.089-.101.055-.192.099-.305.033-.022-.011-.067.044-.101.077-.012.01-.023.033-.034.033-.034-.055-.057-.1-.102-.166-.079.122-.147.21-.203.31-.011.01-.034.01-.034.021.011-.055.034-.11.034-.165a.419.419 0 00-.147.132c-.079.133-.045.177.034.177zM7.688 13.017c.034-.011.08-.022.113-.044.023-.022.056-.066.045-.077-.045-.1.034-.122.113-.177-.034-.022-.068-.044-.09-.044l-.203.066c-.034.011-.08-.01-.136-.01 0 .032-.011.065-.011.11-.034-.012-.068-.034-.102-.045.023-.055.045-.11.09-.187-.101.088-.237.11-.169.276.045-.011.113-.011.17-.011.022.033.067.077.101.077.068.01.113-.033.102-.121.034.021.045.044.045.055a.37.37 0 01-.068.132c-.034-.055-.079-.033-.113.011-.022.022-.022.044-.022.077.034-.022.079-.033.113-.044.01-.01.01-.033.022-.044zM7.53 5.065c-.034.044-.056.121-.113.143-.045.022-.113-.011-.18-.022-.09.143-.125.154-.192.066-.023.011-.034.033-.068.033l-.271.033c-.011 0-.023.022-.034.033-.045.045-.102.11-.147.166.057.11.125.22.181.342a.219.219 0 00-.034.055.874.874 0 00.17.01v.266c0 .022 0 .033-.012.044-.045.055-.09.11-.147.176-.022.022-.056.066-.079.066-.101-.044-.18.011-.27.044-.113.044-.249.078-.238.232 0 .022-.022.033-.034.055-.01.033-.033.077-.033.1.033.043.09.088.124.12.034.023.068.023.113.034a.427.427 0 01.067-.055c0 .044.012.088 0 .11-.01.088-.045.176-.045.265 0 .11-.17.286-.282.275a.166.166 0 00-.079.022c-.045.022-.102.044-.147.067-.011.01-.034.01-.034.022-.022.099-.113.187-.045.286a.52.52 0 00.09-.077c.08.65-.056.772-.316.97-.01-.033-.01-.077-.022-.12-.023.01-.045.01-.045.021.011.1-.068.11-.136.155-.192.088-.214.165-.135.342.034-.11.101-.022.135-.011s.034.077.034.11c0 .077-.011.154-.023.231-.022.078-.033.177-.079.21-.112.088-.146.198-.225.33-.023-.032-.034-.076-.068-.12-.068.088-.124.12-.237.088-.023.055-.045.121-.08.187.057.033.125.077.215.121.012-.077.023-.132.034-.209a.303.303 0 01.09-.044l-.18.496c-.011.033.011.066.011.1s.023.11 0 .11c-.101.044-.09.154-.147.22l-.169.199c-.023.044-.011.11-.023.154-.022.1-.079.188-.09.276-.022.11-.034.231-.034.353.012 0 .023.01.023.01.034-.054.056-.12.101-.209.113.199-.045.298-.101.42a3.54 3.54 0 00-.068-.188c-.079.121-.147.22-.214.33a.687.687 0 01-.046-.099c-.067.078-.124.155-.191.221-.012 0-.023-.011-.034-.022-.012.022-.034.033-.034.066 0 .066.011.11.022.176.034.023.08.034.113.056v.01c-.022.166-.034.332-.067.486a.651.651 0 01-.113.254.73.73 0 00-.147.275c-.011.055-.011.122-.023.188-.022.099-.034.198-.056.297 0 .012 0 .023.011.034.057.044.057.044.034.11-.079-.066-.079-.066-.113.044a.51.51 0 01-.056.11c-.09.133-.18.265-.158.441.01.056-.012.11-.023.177.068-.022.136-.033.215-.055l.135-.066.068-.033.101-.1.08-.077c-.057-.033-.023-.077 0-.11.01-.011-.012-.033-.023-.055-.057-.067-.034-.144.011-.188.068-.055.158-.088.237-.132.023-.011.034-.044.045-.066.012-.011.012-.033.023-.033.135 0 .203-.166.35-.133.068.011.147-.01.214-.022 0-.11.147-.044.192-.11a.196.196 0 00-.056-.044c.09-.011.17-.011.248-.022a2.91 2.91 0 00.305-.044c.034-.011.08-.089.102-.078.113.034.056-.044.067-.099.034.022.09.033.136.066a.702.702 0 00-.136.1c.181.143.237-.089.373-.089-.011-.01-.011-.022-.011-.033-.045.011-.102.033-.158.033v-.22c-.034.022-.08.033-.113.044v.01c-.068.034-.147.067-.203.1-.125-.077-.113-.154-.034-.253.022-.034.045-.067.045-.1.011-.121.113-.143.192-.187.011-.011.034-.011.045-.011.045-.11.17-.144.27-.177.159-.044.294-.11.419-.21.01-.01.033 0 .045 0 .056-.01.124-.01.169-.032.056-.022.113-.088.158-.077.17.033.226-.11.237-.188.023-.11.08-.066.147-.066.023-.199.113-.342.316-.42.034-.021.08-.043.113-.076.113-.11.27-.11.406-.144a.935.935 0 01.17-.121.182.182 0 01.079-.044c.09-.044.17-.1.248-.144.023-.01.034-.022.045-.022.113.011.203-.055.271-.143.023-.033.068-.044.034-.1-.034-.054-.023-.132-.045-.187-.034-.077-.034-.176-.045-.264a1.515 1.515 0 010-.32c.011-.1.045-.188.067-.276.012-.044.034-.1.023-.132-.034-.1-.09-.177-.113-.276a.645.645 0 01-.034-.287c0-.121-.034-.242.034-.364.057-.11.102-.264 0-.397a.761.761 0 01-.113-.21c.057-.054.057-.154.057-.23s-.012-.155.011-.221c.011-.066.056-.11.056-.177a.973.973 0 00-.022-.309c0-.01-.023-.01-.034-.022a.305.305 0 01-.079-.099c-.023-.044-.011-.11-.034-.143-.101-.166-.079-.331-.034-.485.012-.034.045-.045.08-.067a.14.14 0 01-.035-.044l-.135-.463c-.023-.055-.068-.11-.08-.165a.815.815 0 010-.287c.012-.077-.056-.188.08-.232.023-.01.034-.055.023-.088-.023-.055-.046-.11-.057-.165-.023-.078-.102-.055-.124-.1a.953.953 0 01-.09-.253c-.034-.155-.057-.32-.09-.485-.012-.045.01-.122.033-.177.034-.044.011-.176-.022-.198-.034-.034-.08-.067-.102-.1-.034-.044-.045-.11-.09-.176-.08.077-.147.132-.226.198-.011-.022-.011-.044-.023-.077-.113.033-.237.077-.35.11 0-.01-.011-.01-.011-.022.023-.01.045-.033.079-.033-.045-.121-.056-.066-.079-.01-.023.032-.034.065-.045.088-.102.12-.09.22.034.264v.144c.045-.034.09-.078.113-.1.045.033.079.044.112.077-.01.11-.01.243-.022.386.056-.022.09-.033.135-.066-.01.066-.01.1-.01.144-.012 0 0 0 0 0zm14.202 5.569c.034-.033.08-.044.124-.088-.034.154.057.11.102.11.034-.044.045-.088.079-.121.023-.033.068-.078.08-.11.01-.11 0-.232 0-.354 0-.022.01-.033.022-.044-.102-.044-.204-.044-.294.033.023-.044.034-.088.045-.12-.056 0-.113-.012-.158 0-.034.01-.045.032-.079.043-.101.066-.079.188-.113.276-.022.033-.011.077.012.11.01.11.045.232.18.265zm-.146.662c-.034-.011-.09-.044-.125-.033-.113.044-.18.286-.124.397 0 .01.011.01.023.01.011-.021.022-.032.034-.066.146.056.237 0 .237-.165.079 0 .101.033.056.1-.034.043-.045.098-.079.154.011.01.023.01.023.022a.631.631 0 01.079-.044c.045-.045.101-.089.146-.133a.348.348 0 00.09-.132c.012-.077.012-.155.012-.22-.034.01-.09.032-.113.043-.034-.033-.045-.066-.056-.088a.237.237 0 01-.068.044.343.343 0 00-.135.11zm-5.25.297c.068.067.113.11.18.133.034.022.08.01.125.01.034.012.079.034.113.034.124-.033.056-.155.101-.232-.034-.01-.045-.022-.056-.022-.012-.077-.012-.154-.012-.22h-.033c-.08.088-.147.165-.215.242-.011 0-.023-.01-.034-.01 0-.056.012-.111.012-.166h.033a.488.488 0 00-.079-.088c-.034.077-.045.12-.067.165-.034-.022-.09-.044-.125-.077a2.343 2.343 0 00-.045.21.398.398 0 01.09.132c0-.055.012-.089.012-.11zm.779.199c.011.01.034.01.034.022.056-.044.101-.1.169-.132.068-.034.147-.034.237-.034.011-.01.023-.044.034-.099-.079.022-.124.033-.203.066.034-.077.045-.11.068-.154.033-.055.022-.154-.023-.176-.034-.023-.068-.056-.124-.089-.011.022-.034.044-.045.077-.034.045-.08.1-.113.155-.012.01-.034.022-.034.033.011.1.011.22 0 .33zM6.853 14.064c-.012-.155-.124-.155-.203-.177-.046-.022-.136 0-.147.033-.045.1-.102.1-.17.022a4.589 4.589 0 01-.169.243l.034.033c.034-.033.068-.055.113-.1.056.034.068.034.18 0 .034-.01.057.012.113.023 0-.022.012-.033.012-.044l.237-.033zm8.557-5.878c.057.01.102.022.158.01.045-.01.124-.01.147-.032.034-.078.068-.188.034-.243-.068-.1-.192-.055-.294-.033-.09.022-.045.088-.045.143-.023.044-.011.11 0 .155zm-.688 1.213c.09.099.237.033.237.176.01 0 .022 0 .033.011.046-.165.102-.342.147-.485-.034.011-.09.044-.113.033-.09-.066-.146 0-.203.044-.079.055.023.11.023.166l-.057-.056c-.034.023-.045.078-.067.11zm-6.605 3.474c.08.01.158.022.237.033.09 0-.011.143.102.143.011-.044-.011-.088.011-.11a.796.796 0 01.18-.144c.035-.033.08-.066.125-.099-.011-.01-.011-.022-.023-.033-.135.022-.282-.033-.406.055l-.226.155zm8.343.716c-.011-.01-.022-.01-.034-.022-.034.045-.079.089-.101.144-.034.044-.046.099-.08.143-.01.022-.045.044-.033.077a.134.134 0 00.056.055c.034 0 .08-.01.09-.033.034-.044.034-.055.068-.01.011.01.034.032.034.021.034-.033.08-.055.124-.11-.158-.055-.158-.154-.124-.265zm-.384-.672c.034-.022.068-.033.113-.055a.642.642 0 00-.079-.044c.011-.012.011-.023.011-.023a.62.62 0 00.17.045c-.012-.11-.012-.21-.034-.31-.011-.032-.045-.043-.068-.054-.034.077-.068.12-.102.176-.09.1-.09.177-.01.265zm-.237 3.518c-.034-.044-.056-.1-.09-.155.011-.01.022-.044.034-.044.045 0 .079-.01.113-.01a.48.48 0 00-.068-.078v-.166c-.102.012-.203.199-.192.298 0 .077.135.166.203.155zm5.475-3.871c.012-.088.012-.188.023-.276-.102.033-.147.11-.135.22 0 .023-.023.045-.023.067-.022-.011-.034-.033-.045-.033-.023-.011-.034 0-.045 0 .011.088.022.165.022.242.068-.077.136-.143.203-.22zm-4.402-.044c-.034.01-.09-.011-.113.01a2.885 2.885 0 00-.17.188c.034.033.068.044.09.066v.11c.125-.099.159-.23.193-.374zm-11.2 2.8c.023-.043.046-.11.068-.143a.185.185 0 00-.101-.033.137.137 0 00-.012.067c-.034-.022-.067-.044-.067-.056.01-.055-.023-.066-.057-.044-.034.011-.068.044-.056.078s.034.066.067.088c.034.022.034.01.034.044 0 .022.012.033.012.044a.78.78 0 01.112-.044zm12.058-3.826c-.023-.01-.034-.022-.045-.033-.057.11-.113.22-.193.364.046-.011.102-.011.125-.033.09-.077.056-.199.113-.298zm-5.487-1.147c-.08.011-.158 0-.226.022-.022.011-.034.077-.034.11 0 .023.057.056.068.045.079-.033.17-.078.192-.177zM5.182 15.31c.135.066.147-.122.248-.11-.045-.067-.113-.089-.17-.034-.033.045-.056.1-.078.144zm7.022-4.731c-.023-.011-.045-.022-.068-.022-.045.022-.101.044-.113.088-.011.022.034.077.045.121.057-.077.102-.121.136-.187zm3.692 1.908c-.136.099-.023.21-.057.308.068-.022.08-.099.057-.308zm9.528-3.96a1.3 1.3 0 01.17-.044c.022-.01.022-.033.033-.044a.156.156 0 01-.045-.033 1.437 1.437 0 00-.113-.033c-.011.044-.022.1-.045.155zM7.158 13.954l-.204.133c.068.055.113-.133.158.022.046-.044.17-.055.046-.155zm-.847-.055c-.215.033-.282.088-.271.199.09-.066.17-.122.27-.199zm-1.784 1.28c-.102.055-.068.11-.022.165.033-.022.067-.033.101-.066-.022-.033-.056-.066-.079-.1zM21.44 9.056c-.012.066-.012.143-.023.22.045-.044.09-.077.136-.12a.87.87 0 00-.113-.1zm-6.977.298v.033c.045.01.101.033.124.022.034-.022.056-.077.079-.11-.034-.012-.056-.012-.09-.023.022.078-.045.078-.113.078zM16.73 7.91c.011.055.023.11.034.176.09-.099.09-.099-.034-.176zm8.41 3.882c-.044.033-.09.055-.123.077 0 .022.01.033.01.044a.624.624 0 00.148.011c-.023-.055-.023-.088-.034-.132zm-9.099 4.532c-.033.122-.079.221-.113.331.08-.055.113-.176.113-.33zm9.72-8.249c.114.022.17-.033.17-.143-.068.055-.113.1-.17.143zm.531.54c.012.012.023.012.034.012a.228.228 0 00.045-.122c-.011-.033-.045-.044-.079-.077l-.022.022c0 .055.01.11.022.166zM11.37 10.58c.112-.1.112-.11.033-.22-.01.076-.022.131-.033.22zM5.6 15.41a.034.034 0 01.012.022c.045.011.09.033.135.033 0-.01.023-.022.023-.033-.023-.033-.034-.066-.057-.077-.033.011-.079.044-.112.055zm18.99-6.96c-.012 0-.023-.01-.034-.01-.046.054-.102.11 0 .198.01-.066.022-.133.034-.188zm1.557.011c-.01.067-.022.11-.033.177.056-.044.203-.066.033-.177zm22.499 4.923c.113-.022.181.033.26.099.09.088.192.154.271.231.045.045.09.11.136.155.045.044.067.11.158.11.079-.01.113.1.09.155.045.099.079.187.135.275.102.188.226.353.418.475.09.055.17.12.248.187.113.077.136.21.147.33.023.144.057.277.136.409.022.033.056.055.09.044.17-.011.26.1.372.21.08.088.193.143.272.22.067.088.124.177.18.276.045.1.09.198.18.265.046.033.08.099.114.143.045.055.124.11.169.165.124.11.27.232.373.353.067.077.101.188.158.276.034.055.09.11.135.154.147.133.294.254.463.386.214.155.406.342.61.53.124.12.282.231.429.33.135.089.27.155.417.232.034.022.08.011.125.011a.14.14 0 00-.046.066c.102.044.215.077.305.133.09.044.158.12.237.187.034.033.08.066.113.1l.339.23c.068.045.113.111.192.144.113.055.237.11.361.144.113.033.226.055.339.088.056.022.113.044.18.077.068.033.125.077.192.11.147.066.282.122.418.232.102.088.237.11.35.176.056.034.113.078.18.11.023.012.034.023.046.023.113-.022.192.077.282.11.113.055.237.088.35.143.135.066.293 0 .429.11.034.034.113.089.203.045.045-.022.124.033.203.055.17.055.339.11.497.165.034.011.08.033.113.066.09.056.192.078.294.011-.023.11.033.144.112.155.034 0 .08.033.113.066.192-.044.294.121.43.199a.208.208 0 01.067-.045c.011.034.023.056.034.1.011-.033.022-.055.022-.078.068.045.08.199.215.1.102.11.248.033.373.099.27.132.564.198.846.298.463.165.926.342 1.378.507a.709.709 0 01.101.044c-.079.055-.135.11-.203.155-.136.11-.158.132-.294.22-.033.033-.101.044-.146.033-.136-.022-.407.044-.542.022-.068-.01-.113-.044-.192-.066-.08.044-.192.022-.339-.11-.09.088-.18.077-.361-.044a.353.353 0 00.068-.055 1.96 1.96 0 01-.158-.045.439.439 0 00-.034.11c-.023-.01-.057-.01-.09-.021-.091-.033-.17-.078-.272-.11 0 0-.01.032-.033.088v-.089c-.034 0-.068.011-.09 0-.035-.01-.057-.022-.102-.022.01-.01.022-.022.034-.022-.08-.044-.159-.099-.238-.143-.067-.044-.203.011-.225.077-.012 0-.023 0-.023-.01-.09-.2-.293-.166-.463-.2-.17-.033-.35-.044-.497-.12a1.744 1.744 0 00-.282-.1c-.034-.011-.045-.044-.079-.077s-.056-.055-.09-.077c-.09-.078-.17-.166-.294-.177-.022-.01-.033-.044-.056-.077a.278.278 0 00-.203-.121c-.08-.011-.17-.011-.226-.1-.034-.033-.102-.044-.158-.066-.023-.01-.068.011-.08-.01-.078-.111-.214-.045-.315-.111-.012-.011-.034-.011-.045-.011-.158-.033-.305-.033-.463-.077a1.96 1.96 0 01-.553-.265c-.046-.033-.09-.1-.17-.044-.011.011-.045-.022-.056-.044-.113-.199-.294-.309-.52-.375-.101-.033-.191-.088-.282-.133-.113-.055-.226-.12-.35-.176-.034-.022-.079-.01-.113-.022-.079-.022-.17-.033-.248-.044-.034-.011-.08-.022-.113-.044l-.192-.22a.386.386 0 00-.124-.111 7.276 7.276 0 00-.485-.32c-.192-.11-.384-.254-.599-.342a.666.666 0 01-.35-.286c-.045-.078-.158-.133-.237-.188-.022-.022-.045-.033-.068-.055a5.877 5.877 0 00-.304-.243c-.023-.01-.046 0-.08 0 .012-.022.023-.022.034-.033-.112-.077-.214-.143-.316-.22-.135-.1-.26-.188-.372-.298-.045-.044-.068-.132-.113-.188a7.606 7.606 0 00-.43-.419c-.157-.132-.327-.253-.473-.386-.045-.033-.08-.099-.113-.154-.011-.011 0-.022-.011-.022-.113-.055-.068-.143-.034-.22.034-.089-.012-.155-.034-.221-.012-.033-.08-.033-.124-.033-.125.01-.192-.078-.294-.133-.147-.099-.327-.132-.418-.297-.045-.078-.113-.144-.113-.243 0-.044-.034-.1-.045-.154-.034-.11-.113-.221-.045-.342.011-.011-.023-.044-.034-.044a.57.57 0 01-.305-.078c-.01-.01-.034-.022-.034-.033a.47.47 0 00-.395-.187c-.113-.011-.214-.077-.237-.188-.011-.022-.034-.033-.034-.044 0-.022.012-.033.023-.055a.088.088 0 00.045.011c-.022-.198-.034-.397-.056-.595a.342.342 0 00-.057-.11c-.022-.023-.079 0-.113 0s-.067-.012-.09-.023c-.045.033-.09.077-.147.11.045.045.102.122.012.21-.125-.121-.26-.22-.396-.342-.045-.044-.112-.11-.18.011-.011.022-.08.022-.124.022-.023.044-.068.1-.068.155 0 .099-.068.187-.08.286-.01.11-.056.221-.056.331.012.11-.022.177-.146.188-.023 0-.023.033-.034.055-.113.165-.102.353-.124.53-.012.054-.046.132-.034.187.034.143-.057.187-.147.275-.102.1-.17.221-.248.331-.012.011 0 .033.01.033.069.155.035.31-.033.452-.034.078-.045.166-.079.243-.011.033-.034.077-.079.088-.136.067-.237.287-.17.42.012.01.023.022.023.022-.022.033-.045.055-.056.088-.011.099-.011.198-.034.287-.023.066-.045.143-.102.198a.46.46 0 00-.113.364c.012.176-.033.364-.101.53a1.173 1.173 0 01-.192.253c-.057.077-.147.132-.215.198-.034.033-.045.078-.056.11-.045.166-.09.331-.136.486a2.02 2.02 0 01-.112.276c-.057.143-.204.21-.34.21-.056 0-.146-.09-.191-.155-.045-.066-.034-.144.034-.188.034-.033.056-.044.034-.099-.012-.033.022-.1.034-.132.079-.166.045-.353.09-.53a4.49 4.49 0 01.135-.518c.046-.176.113-.353.17-.54.034-.11.034-.22.068-.342.01-.044.045-.1.067-.144a2.44 2.44 0 00.09-.264c.034-.199.08-.397.113-.596.012-.044.046-.088.068-.132.09-.254.18-.496.26-.75.022-.077-.011-.177.011-.254.034-.154.08-.32.203-.43.012 0 .023-.022.023-.022.023-.154.113-.298.079-.474-.023-.1.011-.188.079-.265.023-.022.023-.077.034-.11s.034-.055.034-.088c.056-.11.101-.232.18-.342.057-.088.012-.144 0-.22 0-.1.023-.2.034-.287.012-.078.034-.133.113-.166.034-.022.045-.1.068-.154.011-.033.011-.077.022-.089.147-.044.147-.187.136-.286-.011-.144-.08-.276-.124-.42-.012-.032-.034-.065-.057-.132a1.3 1.3 0 00.17.044c.033-.044.079-.099.113-.154.033-.044.079-.1.124-.165-.023-.033-.08-.1-.102-.177-.079-.165-.226-.242-.372-.32-.023-.01-.046-.01-.057-.01-.113.143-.248.032-.361.01a2.404 2.404 0 01-.474-.165 1.172 1.172 0 01-.463-.342c-.011-.01.034-.044.045-.066-.023-.088-.045-.177-.08-.265-.01-.033-.044-.033-.078-.055-.023-.022-.034-.044-.068-.077-.011.022-.011.033-.011.044-.08-.055-.248-.055-.328.022-.045.044-.112.088-.158.143-.022.023-.022.067-.022.1l.034.21c.011.043.034.098.045.154h.034c-.034.077-.057.143-.09.22-.023.055-.034.077-.102.077-.023 0-.057.067-.08.1a.39.39 0 00-.044.099c-.113.165-.215.342-.181.551.023.089.045.166.011.254-.045.11-.022.243-.135.33-.011.012-.023.012-.034.012-.09-.022-.147.033-.17.11-.033.121 0 .265-.101.364-.023.022-.068.11.023.154.101.045.01.122.01.188-.01.066-.044.121-.078.187-.034.067-.068.089-.136-.01-.09.176-.18.33-.237.485-.034.077-.022.165-.022.242-.012.077.034.133.034.199.01.033-.034.077-.046.11-.033.132-.079.276-.112.408-.012.022-.034.055-.046.055-.113-.022-.135.066-.169.121-.034.045-.056.089-.09.122-.034.066-.08.132-.023.21.023.032-.011.077-.011.11 0 .253-.034.496-.17.716-.056.1-.124.133-.214.122-.023.088-.034.165-.056.242-.046.188-.09.375-.147.563-.034.11-.08.21-.136.309-.022.033-.09.066-.135.099.011.077-.08.21-.18.242 0 .243-.114.453-.238.651-.101.144-.192.298-.327.408a1.088 1.088 0 00-.271.287c-.08.132-.226.187-.316.298-.057.055-.17.066-.249.11-.101.066-.203.143-.304.198-.08.045-.147.1-.226.11-.124.012-.215.122-.316.133-.113.011-.158.132-.283.1-.113-.034-.225-.034-.35-.056-.304-.077-.485-.298-.61-.54-.078-.144-.112-.298-.225-.452a.85.85 0 01-.147-.618c.012-.033.012-.066.023-.088.056-.11.056-.188-.045-.265-.113-.077-.147-.198-.17-.33-.022-.11-.022-.232-.022-.343 0-.033.034-.088.079-.11.045-.022.067-.044.056-.099a.069.069 0 010-.066c.068-.155-.022-.243-.135-.331-.045-.033-.068-.143-.08-.21a.878.878 0 010-.297c.012-.089.068-.177.08-.265.034-.165-.023-.309-.057-.463a.726.726 0 01.045-.463c.034-.078.102-.155.113-.232.012-.11.023-.254-.034-.342-.079-.132-.022-.265-.022-.386 0-.1.045-.187.101-.265a.528.528 0 00.068-.375c-.022-.154-.022-.32-.022-.485-.012-.154.079-.275.146-.408.068-.11.057-.231.046-.342a1.118 1.118 0 01.09-.54c.011-.011.011-.033.022-.033.204-.11.17-.309.192-.485a.667.667 0 00-.022-.254c-.034-.199.045-.353.18-.496.057-.066.125-.144.102-.254-.011-.044.034-.1.034-.143-.011-.089-.034-.166-.034-.243.011-.11.045-.22.079-.33.034-.1.113-.188.136-.287a.198.198 0 01.112-.133c.057-.033.057-.099.046-.154-.046-.22.01-.441.056-.64.034-.165.113-.309.18-.485.023.033.035.055.035.066.056-.143.09-.198.112-.198-.079-.155-.045-.298.034-.442.09-.154.147-.32.215-.474a4.44 4.44 0 00.101-.242c.012-.022-.022-.055-.01-.078.01-.033.033-.077.033-.12.034-.1.056-.188.102-.288.101-.231.192-.463.293-.683a.184.184 0 00.023-.055c-.045-.133.022-.221.113-.31.022-.021.01-.054.022-.076.057-.11.124-.232.18-.353a2.13 2.13 0 00.091-.243c.011-.011.011-.033 0-.033-.09-.21-.045-.375.113-.54.068-.067.102-.177.147-.265.113-.254.203-.518.338-.761.068-.11.192-.188.294-.287.056-.055.147-.088.17-.187.033-.11.124-.155.236-.199.034-.01.057 0 .09.011.046.011.102.033.147.033.08-.01.159-.033.271-.055-.045.1-.079.166-.112.22-.012.034-.034.067-.034.089.034.199-.113.309-.226.441-.08.088-.102.22-.18.309-.102.121-.114.265-.125.408-.113-.022-.158.033-.147.143.012.055.012.133.012.199.01.044.01.11.022.154a4.46 4.46 0 00-.248.22c-.034.034-.057.1-.08.155-.01.011 0 .022 0 .022-.09.11-.056.243-.067.364-.011.144-.023.265-.113.386-.034.044-.09.088-.113.144-.045.066-.101.132-.113.209-.022.066-.034.11-.113.11a.802.802 0 01-.022.563c.101.01.101.044.034.132-.012-.033-.012-.044-.023-.077a.035.035 0 00-.045 0 .27.27 0 00-.045.1c-.034.087-.045.165-.17.176-.033.01-.079.077-.09.11-.045.121-.09.243-.124.386.034-.011.045-.011.079-.022.023.132.034.264.034.386 0 .033-.034.1-.045.1-.124-.012-.113.11-.18.164-.023.023-.046.034-.08.056-.022.022-.045.033-.056.055-.046.11-.102.21-.147.32.158 0 .158.01.113.143-.012.033-.034.077-.023.088.113.121-.011.243-.011.364-.068-.022-.113-.033-.136.044-.033.077-.101.133-.146.199a.362.362 0 00-.045.099c-.012.033-.023.066-.046.077-.113.033-.067.1-.022.166.147-.133.135.044.203.099-.056.077-.124.154-.192.242.147.045.068.133.045.199-.011.022-.056.033-.09.033-.057.077-.113.165-.18.243-.023.022-.023.044-.035.077-.01.01-.01.022-.022.033-.068.044-.136.088-.203.121.033.044.067.1.101.155.023-.011.045-.033.08-.056.146.078.157.078.112.265-.022.11-.056.21-.101.32-.023.044-.034.1-.113.088-.034 0-.057.066-.09.1-.023.021-.046.033-.091.077-.034.066-.102.154-.135.253-.023.044.01.122.022.188.057-.1.158-.133.192-.077a.48.48 0 01.034.253c0 .011-.023.022-.023.033.023.177-.056.265-.225.31-.046.01-.09.087-.125.131-.067.1-.113.199-.158.276.023.066.034.11.057.188h.226c.079.231.033.397-.17.573-.068.055-.147.11-.192.177-.034.044-.034.132-.045.198-.011.044 0 .088.011.154.034-.055.034-.088.057-.12.011-.012.034-.023.034-.034a.155.155 0 00.034.044c.022.033.022.066.045.1.113.143.034.286.011.43a.233.233 0 01-.09.132c-.068.033-.113.121-.147.187-.045.1-.102.199-.113.31-.011.043.045.11.068.165 0 .01.045 0 .056-.023.08-.077.158-.055.18.034.046.187.08.363-.112.518-.09.066-.113.364-.056.452.045.066.101.143.146.22.08.11.034.353-.045.464-.045.077-.045.176-.068.265-.01.044-.033.088-.033.132.079.077.169.154.27.243 0 .01.023.01.023.022-.011.165.079.33 0 .485a.204.204 0 00-.023.143c.046.143.09.287.159.408.045.077.101.132.112.22l.034.276c.012.033.012.067.034.078.113.11.192.242.35.297.023.011.045 0 .068 0 .022 0 .045-.01.068-.01.113.055.214.01.304-.078a.484.484 0 01.147-.1c.192-.087.339-.242.474-.396.215-.21.362-.474.497-.728.045-.088.057-.199.102-.287.034-.088.079-.165.113-.242.09-.188.214-.342.27-.552.08-.264.181-.507.283-.76.045-.122.135-.232.18-.365.046-.154.08-.32.113-.474.034-.143.102-.276.147-.419.068-.187.136-.397.215-.584.033-.11.101-.22.146-.331.023-.044.023-.11.034-.166.057-.165.113-.33.17-.485.022-.077.01-.176.045-.243.034-.066.067-.11.09-.187.045-.154.124-.309.18-.474.046-.133.068-.265.102-.408.023-.088.068-.155.113-.232.08-.154.17-.298.215-.474.034-.143.09-.287.09-.441.011-.088.079-.177.113-.265.011-.033.022-.055.034-.11.067-.055.146-.121.158-.254.011-.077.034-.154.045-.242.023-.155.034-.31.045-.464.011-.033.034-.044.045-.088.113-.265.271-.53.271-.838 0-.077.057-.154.09-.232a.894.894 0 01.159-.264c.056-.055.158-.177.079-.298-.012-.011 0-.033 0-.055.022-.132.045-.265.045-.397 0-.11.079-.188.113-.287a.505.505 0 00.056-.11c.045-.143.102-.287.147-.441 0-.022.011-.033 0-.044-.102-.199-.068-.408.09-.585.045-.055.08-.132.113-.198.023-.033.034-.056.045-.078.045-.055.023-.231 0-.286a.717.717 0 01-.022-.31c.022-.12.056-.22.101-.33.113-.254.113-.496.113-.76 0-.09.045-.177.08-.266.044-.154.1-.308.09-.485-.023-.253-.046-.507.033-.76.034-.089.068-.188.09-.276.012-.078.023-.144-.056-.21-.045-.044-.022-.165-.034-.243-.045-.143.08-.253.08-.386 0-.022.056-.066.1-.055a.237.237 0 01.08.055c.113.034.215.078.327.11 0-.01.012-.021.023-.065.023.066.068.12.045.154-.045.088-.101.21-.18.254-.102.055-.102.154-.159.22-.01.011 0 .033.012.033.079.1.079.243.192.32.01.011.022.022.022.033-.011.11.102.166.113.265.057-.033.113-.077.18-.121-.01.12-.022.22-.033.32 0 .021-.034.043-.045.032-.158-.022-.18.122-.237.199-.045.066-.045.165-.045.254.01.099.045.198.079.286.067-.022.112-.055.146-.044.113.055.18-.01.271-.033.09-.033.18-.033.271-.055.102-.022.192-.055.282-.088l.204-.066.27-.1c.023-.01.057.022.102.033-.045.033-.079.045-.101.067.01.01.01.022.01.033.159-.033.328-.078.498-.11-.023-.133.01-.21.146-.232.057-.011.102-.088.158-.11.17-.067.35-.11.52-.177.113-.033.226-.077.35-.11a.798.798 0 01.316-.055c.101.022.18-.033.282-.022.023.01.102-.056.102-.089.01-.154.045-.286.09-.43.034-.121 0-.264.011-.397.012-.088.034-.187.057-.275.034-.1.09-.188.146-.31.046.144.09.265.136.387.045.01.102.01.147.022.09-.044.169-.088.27-.133.012.034.023.067.035.11.022.089.045.166.067.254.034.1-.034.155-.09.21-.124.132-.102.287-.09.43 0 .011.034.022.056.033.09.022.17.033.26.044.011 0 .034.011.034.011.079-.088.192-.01.27-.044.17-.1.35-.088.542-.1.181-.01.362-.032.542-.043a.86.86 0 00.18-.055c.091 0 .17.022.26.022h.949c.18 0 .361-.011.542 0 .068 0 .135.022.214.033.034.01.08-.011.102-.011.056.01.102.022.135.022.113.022.226.033.34.044.202.033.406.077.609.088.056.011.124-.044.192-.066-.023-.044 0-.055.135-.1-.011.034-.022.078-.034.122.034-.022.045-.022.068-.033.011.033.011.066.023.11.033-.033.079-.055.112-.088.181.033.35.077.531.11.068.022.147.011.192.044.09.078.192.044.282.089.113.033.249.022.328.154.034.066.158.1.18.165.045.1.08.199.17.265.022.011.01.055.033.055.057.044.113.088.17.144.079.088.135.176.214.264.068.066.158.1.237.155.046.033.09.077.136.121-.158.1-.158.1-.102.132a.125.125 0 00-.045.022c.011.089.023.166.034.232h-.034c.068.077.147.154.215.232l.022-.023c-.011.023-.011.034-.011.067h.022v-.22c-.033.043-.033.076-.067.131-.012-.066-.023-.099-.012-.132 0-.01.046-.01.09-.022a2.186 2.186 0 01-.044-.265s.033-.022.056-.033c.034.177.124.364.068.563-.034.11-.034.242-.045.364-.023.12-.034.264-.113.375-.023.022-.023.044-.023.066-.022.176-.17.286-.237.44-.034.1-.124.177-.214.266-.09.088-.192.154-.271.231-.068.055-.125.132-.192.199-.09.099-.215.176-.271.297a.531.531 0 01-.203.265c-.012 0-.023.022-.023.033-.011.155-.135.188-.237.232-.147.066-.294.11-.43.187a2.838 2.838 0 01-.326.11c-.034.012-.113 0-.068.089.022.033-.08.077-.113.055-.011-.011-.023-.011-.034-.022-.011.022-.011.033-.023.055-.01.022 0 .066-.01.077-.08.077-.159.144-.238.22a.176.176 0 00-.045.078c.034.011.056.022.102.033.01.011.033 0 .056.011-.034.044-.045.077-.08.11.024.011.035.022.069.033-.012.011-.012.022-.012.022-.033.023-.079.045-.113.078-.112.066-.237.154-.372.21-.068.032-.147.01-.226.021-.045.011-.101.033-.158.033-.113.011-.237.011-.361.022-.068.011-.147.022-.192.045a.37.37 0 01-.237.066c-.08 0-.158.055-.226.088l-.102.033c-.033.011-.045.033-.079.044.012.011.023.022.023.033-.023.011-.045.011-.068.011.012.022.034.044.034.066-.011.044-.011.089-.034.122-.034.077-.113.143-.101.231 0 .066-.023.11-.09.144-.08.044-.181.033-.215.143-.011.033-.08.033-.124.044-.215.033-.44.055-.655.088-.08.011-.147 0-.215.011-.203.011-.406.011-.587.044a2.12 2.12 0 01-.372.034c-.08 0-.147.033-.215 0-.022-.011-.045-.011-.056 0-.124.099-.282.077-.418.099a.927.927 0 01-.18.01c-.034 0-.057.012-.113.023.045.011.067.011.067.011.034.132-.124.232-.034.364.023.033.08.055.136.1-.102.11-.18.23-.35.242v.033c.068.01.135.022.214.033-.09.033-.158.077-.237.088-.169.033-.338.044-.508.066-.17.022-.338.033-.508.033-.079.011-.17.011-.225-.033-.046-.033-.046-.033-.09.011-.035.055-.114.022-.125-.01-.08-.1-.18-.045-.271-.089-.079.21-.158.408-.226.585.034.055.057.099.08.143a.36.36 0 00.135.176c.056.033.068.133.101.199.023.033.023.088.034.132.034.055.045.11-.034.144-.146-.011-.124.01-.113.033-.09-.067-.18-.144-.282-.22-.011.131.158.319.271.308 0-.022 0-.055.011-.088zm.599-8.757c.09-.033.113-.22.26-.099 0 0 .01-.01.022-.01.068-.034.124-.067.203-.1-.011-.022-.011-.033-.022-.044-.237.022-.486.044-.712.165.068-.01.136-.01.192-.01a.169.169 0 00.057.098c-.023.055-.045.11-.136.1-.022 0-.034.033-.056.033-.08.044-.158.099-.237.121-.102.022-.203.011-.305.011v.033l.022.022c-.067.011-.146.033-.225.033h-.045c-.09 0-.181-.01-.271.011a5.375 5.375 0 01-.384.055c-.034.011-.08-.033-.113-.033a.837.837 0 00-.237.067c-.136.044-.203.033-.26-.045-.18.056-.35.122-.53.166-.023.055-.046.132-.068.198-.034-.022-.045-.044-.057-.044-.192.033-.113.155-.101.254.056-.011.101-.011.101.066 0 .066 0 .143.023.21.034.11.034.165-.068.22.034.044.023.088-.034.121a.49.49 0 00-.192.364c-.01.144.023.298.034.453a.293.293 0 00.068.11c.023-.011 0-.011 0 0-.045.121-.022.264-.192.298-.011 0-.011.01-.011.022-.034.088-.102.154-.158.22-.08.121-.136.055-.215.033.012.022.045.044.045.066 0 .078-.01.144-.022.221 0 .022 0 .044.011.044.057.044.124.088.203.143a.515.515 0 01-.192.386c-.056.045-.124.089-.169.155-.068.1-.113.198-.158.298.034.099.08.21.102.32.01.044.022.099 0 .132a2.637 2.637 0 01-.181.408c-.023.033-.068.077-.102.066-.09-.011-.079.066-.112.1-.023.021-.023.054-.034.076.079.033.146.056.214.1a.06.06 0 01.034.055c.034-.055.045-.011.079.01.045.034.09.056.136.078.101.033.214.055.282.11.079.066.135.066.226.066.022 0 .033.011.056.023.102.033.192.088.294.099.124.022.26.022.372.033s.215.01.328.022c.101.011.214.011.304.044.125.066.136-.11.237-.077.023.01.046-.022.068-.033l.034-.033c.034-.067.056-.133.09-.199.068-.121.147-.242.204-.364.033-.077.022-.154.033-.242 0-.033.023-.089.034-.122.034-.143-.011-.297.102-.419.056-.066.113-.143.17-.22.033-.055.1-.11.112-.177.034-.165.034-.33.045-.485.012-.077.023-.154.045-.22a5.2 5.2 0 01.192-.342c.09-.144.09-.298.125-.453.033-.143-.012-.286.101-.408.057-.077.102-.165.158-.253.011-.022.023-.033.023-.055l.011-.133c.034-.099.102-.198.09-.286-.011-.177.057-.342.113-.497.068-.22.215-.43.203-.672 0-.034.012-.067.023-.089.079-.121.057-.176-.079-.198.045-.033.09-.066.147-.11-.034-.023-.057-.045-.08-.045-.067-.022-.169-.022-.27-.022zm5.148 4.191c-.012-.011-.012-.011-.023-.011.034-.022.08-.033.113-.066.034-.022.068-.044.113-.055.102-.044.203-.077.294-.133a4.99 4.99 0 01.417-.242c.158-.088.305-.188.452-.276.079-.044.18-.077.226-.176.146 0 .203-.155.35-.188.113-.022.192-.165.27-.254.068-.066.147-.132.204-.21.034-.032.034-.11.079-.142.079-.1.17-.188.27-.276.114-.11.227-.21.328-.331.034-.044.045-.132.045-.21a3.48 3.48 0 00-.022-.352c-.012-.078-.012-.144-.012-.221-.01-.121-.01-.265-.01-.386 0-.022-.012-.044-.035-.044a4.03 4.03 0 01-.226-.132c-.146-.1-.316-.155-.462-.254-.113-.077-.283-.11-.362-.265-.045-.088-.146-.143-.214-.21-.08-.076-.192-.076-.282-.132-.113-.088-.294-.088-.396-.22-.01-.011-.033-.011-.033-.011a12.214 12.214 0 00-.655-.044l-.316-.033-.475-.033c-.01 0-.01.01-.022.01a.173.173 0 00.045.056c-.102.01-.18.022-.27.022-.17-.011-.34-.011-.498-.022-.034 0-.079-.011-.113-.011-.056 0-.101.01-.146 0-.08-.011-.17 0-.237-.067-.023-.022-.08-.022-.113-.01a.53.53 0 00-.113.055c-.034.01-.09.033-.124.022-.08-.022-.192.066-.237-.055-.012-.012-.09 0-.102.022-.045.066-.18.099-.203.033-.034-.089-.09-.067-.136-.055-.09.01-.18.01-.282.022-.135.01-.27.033-.418.033.08.11-.01.121-.045.143-.101.022-.203.022-.327.033a.46.46 0 00.045-.132c-.124.066-.147.165-.17.264-.01.045-.056.155.091.144.011 0 .034.022.034.033.011.121.034.265.011.375-.034.165-.113.32-.237.463-.034.044-.034.143-.045.21-.011.055.022.12.011.187-.022.188.023.375-.09.551-.023.034-.045.078-.09.133.01.033.022.11-.057.154-.034.022-.09.066-.102.1a.536.536 0 00-.01.231.746.746 0 01-.012.386c-.034.1-.09.188-.124.287-.034.088-.045.187-.068.286-.034.144-.147.265-.102.42 0 .01-.01.022-.01.033a5.113 5.113 0 00-.193.364c-.034.055-.045.11-.079.176-.022.044-.056.1-.079.143a2.067 2.067 0 00-.045.265c-.011.033-.011.077.011.077.068.033.045.066.023.11-.034.034-.057.089-.09.122-.023.033-.046.044-.068.077-.057.143-.102.287-.18.42-.069.12-.035.23.022.341.034.055.079.11.113.154.056-.01.124-.01.191-.033.204-.066.418-.121.633-.154.158-.033.316-.055.485-.088.147-.033.294-.077.43-.11.112-.034.248-.078.36-.1.113-.033.237-.044.35-.077.068-.011.125-.033.181-.044.158-.066.316-.144.474-.21.215-.088.43-.176.655-.264.271-.11.53-.22.802-.342.124-.044.225-.1.327-.133.034 0 .045 0 .068.011.011-.11.101-.066.158-.088.034-.022.056-.044.079-.066zM49.256 4.33v.033c.08-.011.158-.011.226-.022v-.033c-.068 0-.147-.011-.226.022zm-10.364 1.6c.147-.055.237 0 .192.177 0 .044 0 .088-.011.121-.011.044-.023.121-.068.143-.034.022-.113-.01-.147-.022-.022.078-.045.155-.045.232s.034.154.057.232c.011.022.045.033.068.022.045 0 .112-.033.135-.022.045.033.102.11.113.165.034.11.034.21.045.33.011.078.034.166.023.243-.023.1-.068.199-.102.298a.3.3 0 00-.124-.033c-.034 0-.057.022-.09.033.022.033.045.088.067.088.08-.01.09.045.113.089.023.022.034.044.057.066.09.066.113.11 0 .176-.023.011-.023.066-.023.1.023.066-.056.143.023.198.01.011-.012.033-.012.044-.045.044-.09.1-.158.166-.045-.011-.124-.023-.17.099-.022.077-.09.143-.044.242a.144.144 0 01-.011.1c.045.033.09.055.112.099.08.11.034.276-.067.408-.09.11-.158.254-.237.375 0 .011-.012.022-.023.022-.08.055-.08.11-.011.176.011.011.011.033.011.067-.034.01-.045.01-.08.01 0 .023-.01.023 0 .034.024.01.035.022.08.044.056.143-.068.264-.113.408a.81.81 0 00-.045.176c-.023.088-.113.133-.192.133-.09.01-.124-.045-.203-.089 0 .056-.023.11 0 .155.068.132.034.264.022.397 0 .01-.022.033-.01.033.1.143-.023.265-.046.386-.034.11-.102.21-.147.32-.034.088-.079.154-.192.165-.011.066-.011.132-.011.21-.102-.022-.113.01-.09.099.022.055.022.11-.034.187-.102.122-.17.265-.26.386-.045.067-.113.122-.18.188-.034.033-.068.044-.09.088a4.18 4.18 0 00-.159.397c-.034.088-.034.188-.079.265-.113.176-.18.364-.35.496a.803.803 0 00-.27.408c-.069.177-.17.33-.272.485-.045.077-.124.144-.192.21-.011.01-.011.022-.022.022-.226.066-.271.287-.407.43-.067.077-.146.154-.203.243-.045.066-.068.154-.113.22a3.93 3.93 0 01-.192.265c-.034.033-.056.077-.101.1-.045.032-.102.065-.147.098-.023.022-.057.033-.068.044 0 .133-.113.188-.18.265-.08.088-.192.143-.283.21-.011.01-.034.022-.034.033-.056.143-.18.231-.304.33-.271.188-.531.398-.802.574-.056.033-.135.044-.192.066-.011.011-.034 0-.034.011-.237.155-.519.22-.801.276-.282.055-.565.121-.858.121-.147.011-.305.044-.452.033-.124-.01-.26-.077-.384-.12-.022-.012-.034-.034-.056-.056-.045.11-.136.055-.203.055-.057-.01-.113-.044-.17-.044-.146.033-.26-.033-.361-.11-.158-.11-.339-.22-.485-.342-.113-.1-.226-.21-.249-.364-.011-.044 0-.1 0-.144.012-.066-.022-.099-.079-.12-.113-.056-.26-.1-.338-.2-.09-.11-.17-.23-.226-.352-.045-.11-.045-.243-.08-.364 0-.011.012-.022.023-.033.08-.11.034-.22-.09-.276-.023-.01-.034-.033-.056-.044-.034-.033-.08-.055-.102-.088-.034-.033-.045-.077-.056-.11-.023-.133-.034-.265-.046-.387-.022-.308-.113-.606-.146-.904a.654.654 0 01.01-.21c.012-.11.114-.088.182-.132-.034-.077-.08-.154-.113-.231-.012-.011-.012-.022-.012-.033a2.505 2.505 0 01-.045-.408c0-.166.023-.342.045-.508.012-.033.045-.077.068-.11s.045-.077.068-.11c-.113-.033-.068-.133-.068-.188 0-.099.034-.198.045-.298.023-.088.034-.176.068-.275.011-.022.011-.044.023-.044.101.01.09-.089.09-.122.011-.198.011-.408.011-.606.057-.011.08-.022.124-.033-.101-.155.034-.265.057-.397.011-.066.045-.133.068-.188.033-.154.045-.33.112-.474.08-.143.09-.33.271-.419.057-.033.09-.11.125-.166.01-.01.01-.033.01-.033-.09-.187-.01-.341.069-.507.01-.033.045-.044.079-.066a.24.24 0 00.033.055c.023.011.034.011.08.011-.023-.033-.034-.077-.046-.1-.045-.054-.034-.11.023-.153.102-.067.203-.133.305-.21.01 0 .011-.011.011-.022 0-.1.034-.22 0-.298-.034-.088.011-.154.034-.198.09-.177.203-.342.305-.508.045-.077.113-.099.192-.077.033.011.079-.01.09-.022.079-.121.158-.265.226-.386.011-.01.011-.022.022-.044-.068.022-.113.033-.158.044-.011-.01-.022-.01-.022-.022.09-.132.169-.276.27-.408.012-.022.046-.011.08-.022s.079-.011.113-.022c-.023-.044-.034-.1-.046-.143 0-.011-.011-.011-.011-.023.057-.066.113-.154.237-.11-.011.033-.022.055-.034.088 0 .011.012.011.012.022.045-.033.09-.066.146-.099.045-.033.057-.11.147-.066a.99.99 0 00.09-.143c.023-.033.023-.089.034-.155.045.066.08.1.113.166.034-.077.045-.133.08-.188-.035-.01-.057-.01-.102-.022.033-.055.09-.121.135-.176.034-.055.09-.11.034-.188-.034-.055-.034-.066-.09-.033.045-.1.045-.1.135-.044.034-.033.068-.077.113-.11.011.033.022.055.034.088.158-.132.27-.342.508-.353 0 .132.101.177.226.11.079-.033.146-.077.214-.11.045-.033.102-.077.18-.132a.505.505 0 01-.033.099c.056.022.113.044.17.077.056.022.112.055.18.033.079-.033.203.044.214.133.068-.033.136-.067.192-.1.09-.044.17-.088.249-.132 0 0 .01-.011.022 0 .17.066.282-.033.407-.11.022-.011.056-.011.09-.011.034 0 .056-.011.079-.011.045.033.102.066.158.11.034.033.056.044.102-.011.01-.022.09-.011.113.022.124.055.146.044.225-.066.034-.044.102-.066.158-.088.102-.044.102-.033.125-.144-.068.011-.125.022-.192.011-.034 0-.08-.022-.09-.044-.057-.1-.147-.11-.249-.055-.023.011-.034.011-.068.022-.034-.055-.045-.11-.158-.11-.068 0-.147-.044-.226-.066-.034-.011-.045-.078-.09-.122-.045.033-.113.055-.158.1-.056.077-.124.11-.226.066.011-.022.011-.044.023-.066-.023.01-.045 0-.068.01-.068.034-.124.089-.192.012.011-.022.011-.044.023-.089-.124.034-.249.045-.362.078-.022.01-.056.033-.056.055-.011.077-.045.11-.113.132a.2.2 0 00-.09.077c-.045.11-.045.133-.203.089.022-.056.033-.11.056-.166-.068-.01-.135-.022-.214-.033.27-.287.587-.53.948-.717.034.077.056.155.101.22.012.012.068.023.09 0 .046-.043.091-.11.136-.165.023-.022.068-.01.113-.022a.282.282 0 00-.034.122c.034.022.057.077.102.077.079.01.158-.022.237-.033.023 0 .034-.022.056-.033.08-.022.158-.033.237-.056.012.023.034.056.057.1a.631.631 0 01.079-.044c-.011-.045-.034-.089-.023-.122.023-.066.147-.088.113-.187.08-.022.158-.033.271-.044a.355.355 0 00-.034.11c0 .022 0 .044.023.066.022.033.045.055.079.088-.011.011-.011.022-.011.033.101-.033.192-.055.293-.099a3.92 3.92 0 00.215-.099c.022-.011.034-.022.034-.033.045-.166.191-.155.327-.155.158 0 .305.012.474.012-.011-.034-.011-.045-.022-.045-.09-.022-.17-.088-.271-.033-.012.011-.046-.022-.08-.033-.056-.033-.078-.154-.191-.11-.012.011-.034-.033-.057-.033-.034-.011-.068-.022-.113-.033.012-.044.012-.11.023-.177 0-.066-.034-.077-.102-.088-.237-.033-.451.055-.655.143-.067.023-.146.011-.214.011 0-.01-.011-.022-.011-.033.214-.077.417-.154.632-.22.011.033.011.066.034.077.045.033.226-.011.282-.044a.497.497 0 01.192-.077c.282-.022.564-.022.858-.022.124 0 .282 0 .406.044a.514.514 0 00.204.033c.169.1.214.21.169.375-.113-.077-.158.033-.237.1a.357.357 0 00.113.054c.09.022.146.033.214.11.068.089.203.056.294-.01a.228.228 0 01.09-.045c.102.078.192.166.294.232.101.055.214.077.316.11.101.044.18.11.27.166.057.044.114.11.193.165.022.044.045.1.079.166-.09.154-.238.198-.407.198-.045 0-.09-.033-.135-.055-.023-.011-.045-.011-.045-.011-.012.022-.023.033-.023.066.034.154.192.254.339.21.113-.034.27.022.36.11.035.033.08.055.102.1-.067-.034-.067.021-.045.076zm-2.596.044c-.26.078-.497.045-.723.155a3.23 3.23 0 01-.35.11 2.23 2.23 0 01-.248.088c-.136.033-.271.044-.395.1a2.34 2.34 0 00-.598.397c-.113.099-.215.21-.34.32-.259.22-.519.43-.744.683-.113.132-.237.276-.35.42-.113.154-.215.319-.339.462-.18.199-.294.442-.429.673-.09.154-.18.32-.27.463-.057.1-.136.177-.182.276-.09.198-.146.408-.225.606-.068.177-.158.342-.237.519a4.357 4.357 0 00-.147.408c-.045.165-.09.342-.147.507-.034.1-.113.188-.124.276-.068.353-.08.717-.215 1.059-.034.066-.045.154-.056.231-.023.21-.011.42-.045.64-.034.132-.045.287-.18.386-.012.01-.012.044-.012.066.034.11.079.22.101.32-.022.022-.033.044-.033.044.146.165.022.309-.034.452-.012.011-.034.033-.045.033-.09-.01-.136.022-.158.1-.012.032-.046.066-.057.088-.068-.022-.113-.022-.17-.034-.169-.077-.191-.066-.27.11-.045-.01-.102-.032-.124-.032-.046.033-.09.077-.125.077-.056.011-.112-.011-.18-.022.034.1.045.187.158.187.034.011.09 0 .147 0a.514.514 0 00.033-.099c.102-.033.147.011.159.11.01.078.033.122.124.089.022-.011.056.01.09.01.011-.032.011-.077.023-.132.067.033.169.011.192.133a.341.341 0 00.056.11c.113.132.113.287-.023.408-.033.022-.09.044-.101.033-.113-.077-.18.011-.26.066-.034.033-.079.055-.113.088a.395.395 0 01-.045-.099c-.068.166.068.53.203.54v-.044c.08.11.136.21.18.331.035.11 0 .155-.112.155-.034 0-.079.022-.113.033 0-.022-.011-.044-.011-.088a.948.948 0 00-.045.176c.101.11.214.22.327.342.18.198.418.32.666.386.08.022.17.033.249.033.282.044.575.044.858-.033.27-.077.53-.155.756-.287.214-.11.406-.287.598-.441l.35-.276c.124-.099.26-.187.361-.298.125-.12.226-.264.35-.397.159-.187.317-.363.475-.55.169-.21.35-.431.508-.651.124-.166.26-.342.372-.508.113-.154.192-.33.294-.485l.101-.166c.102-.165.204-.33.294-.496.056-.099.101-.21.158-.309.102-.176.214-.341.305-.507.079-.143.146-.298.214-.452.113-.22.215-.452.316-.673.023-.033.023-.088.034-.121.034-.066.08-.11.102-.188.045-.11.09-.22.147-.33.01-.022.067-.045.056-.045-.056-.088.034-.143.045-.22.045-.11.068-.243.102-.364.022-.055.022-.121.034-.199.056-.176.113-.341.18-.507.045-.121.113-.21.102-.353-.023-.253.056-.496.135-.739.046-.143.046-.297.08-.452 0-.01 0-.033-.012-.033-.056-.044-.022-.088 0-.132.023-.033.023-.11 0-.121-.101-.045-.056-.089-.011-.133.068-.033.079-.088.056-.154a.119.119 0 010-.088c.045-.21.023-.408-.022-.618-.034 0-.08-.011-.113-.011-.023-.121-.034-.265-.045-.386a2.76 2.76 0 01-.057-.298c-.011-.044-.011-.099.023-.132.09-.1.09-.121-.023-.22-.022.01-.045.032-.068.032a1.332 1.332 0 01-.124-.132c-.034.033-.068.055-.113.11-.18-.22-.248-.507-.406-.739l.327.287c.012-.066.012-.11.012-.143.01-.033.022-.077.033-.1.08-.077.08-.143-.01-.242-.035.033-.046.066-.08.088-.022.011-.09.011-.09 0-.045-.121-.17-.121-.271-.121-.09 0-.17.033-.249.044-.022.011-.045-.033-.078-.044-.012-.011-.012-.022-.012-.022-.079.01-.203 0-.237.044-.101.132-.27.11-.361.22-.011.012-.011.023-.023.034 0 .01.012.01.023.022.034.022.079.033.113.055-.045.066-.09.11-.124.176a.5.5 0 01.282.055zm-4.651.53c-.057-.11-.09-.11-.226-.033-.124.077-.271.044-.395.044-.09.132-.17.264-.249.386.045.033.136.066.17.121.056.077.113.088.18.033a.562.562 0 01.282-.11c.147.01.271.044.407-.055.068-.055.203-.088.27.055 0 .022.057.022.091.033.023-.033.023-.088.034-.1.147-.076.293-.132.463-.088.09.034.135.034.203-.044-.034-.033-.056-.088-.101-.143-.012-.066-.023-.165-.034-.254-.113 0-.237-.01-.305.144-.011.033-.102.033-.147.033-.022 0-.034-.044-.068-.077-.146-.067-.225.11-.338.154-.023-.055-.034-.121-.057-.121-.045-.011-.113.01-.18.022zM29.692 9.04c-.012 0-.023-.01-.034-.01-.012.021-.023.054-.034.065-.023.022-.068.033-.09.022a.135.135 0 01-.08-.077c-.01-.066-.056-.033-.056-.022-.034.066-.068.121-.102.188.113.022.237.01.316.044.102.055.17.033.238-.033.045-.033.09-.044.158-.011.113.077.18.055.293-.033l.045-.045c.045.045.09.1.136.155.034-.044.079-.11.113-.121.169-.023.169-.177.237-.276.011-.011-.023-.044-.034-.044-.023 0-.045.022-.045.01-.034.056-.057.1-.08.122-.033-.044-.044-.077-.078-.11-.09.099-.09.099-.192.033-.057.044-.113.1-.17.154-.101-.154-.237-.022-.35-.099a1.093 1.093 0 01-.101.165c-.045-.022-.09-.033-.136-.055.046 0 .046-.01.046-.022zm.598-1.378c-.034.033-.113.066-.158.121-.034.055-.057.154-.034.188.079.099.18.176.27.264.012.011.023 0 .012 0 .045-.044.08-.1.124-.121.09-.055.18-.121.282-.166.102-.033.17-.088.17-.187-.08.077-.124.033-.158-.033-.09 0-.203.033-.237-.011-.068-.077-.113-.033-.18-.022-.057.044-.091.01-.091-.033zm1.287-.077c-.068.01-.158.01-.18.033-.057.099-.159.099-.25.143-.056.033-.1.077-.044.154.033.056.056.122.079.177.113-.022.237-.033.35-.055a.478.478 0 00.214-.1c.068-.066 0-.264-.101-.297a.15.15 0 00-.068-.055zm-2.123 3.904c.057.01.113.033.181.033.011-.045.034-.11.011-.144-.056-.1-.135-.187-.214-.276-.08-.077-.192-.088-.237-.022-.057.11-.17.21-.068.342.023.033.045.088.079.088.09.012.17-.01.248-.021zm.633-1.357c-.068.044-.08.011-.09-.044 0-.066-.023-.11-.102-.077-.012.01-.034-.022-.045-.033.01.01.01.022.01.033-.09.033-.18.088-.293.132a.678.678 0 00.113.011c.045.088.09.177.147.232.09.077.113-.1.214-.077.012 0 .034-.045.034-.067l-.011-.01c.023-.034.023-.067.023-.1zm-.926 2.228a.552.552 0 01-.124.077.29.29 0 01-.17.01c-.045-.01-.079-.054-.113-.076a.35.35 0 00.012.364c.09 0 .147-.166.26-.033.022-.133.214-.166.135-.342zm7.383-8.007c.011-.143-.101-.143-.18-.165-.023-.011-.046.033-.068.044.022.011.034.022.056.033.011.011.034.011.034.011 0 .11.09.066.158.077zm-7.18 8.084c-.147.033-.158.088-.045.254.011-.1.034-.166.045-.254zm-.587-2.062c.011.01.023.022.023.033.034-.011.079-.011.079-.011.022-.066.022-.122.034-.188-.023-.01-.034-.01-.046-.01a1.303 1.303 0 01-.09.176zm9.1-3.783c-.057.044-.035.143.044.21.034-.089.068-.166-.045-.21zm-8.423 8.315c-.01-.022-.022-.077-.022-.077l-.147.033c0 .011.011.022.011.033.034 0 .08 0 .158.011zm-1.851-1.058c.022 0 .034.01.045.01.011-.077.023-.154.023-.22h-.034a4.078 4.078 0 00-.034.21z"/><path d="M17.352 12.882c.034.044.056.089.079.11.09-.044.102-.11.034-.198-.011-.011-.011-.022-.011-.033.022-.11.033-.22.09-.32.022-.044.09-.077.124-.11.034.055.011.11-.068.165a.1.1 0 00-.034.078c-.01.132-.01.275-.033.408-.023.066-.113.11-.181.165.034.022.056.022.079.033-.034.033-.056.077-.102.11-.011 0-.034-.022-.067-.022-.034 0-.057.022-.113.033.067-.132.124-.264.203-.419zm-1.072 2.847c.022-.089.033-.155.067-.21a.352.352 0 00.045-.154c0-.122.079-.144.17-.199-.035.22.022.441-.283.563zm-5.634 1.135c-.011-.144-.023-.276-.034-.431.125.044.136.155.147.243.011.077.045.166-.113.188zM46.445 1.192c.011.144.034.266.034.387h-.023c-.022-.033-.022-.066-.045-.088-.113-.078-.113-.122-.034-.232 0-.022.023-.033.068-.067zM22.263 8.516c-.045-.1-.102-.188-.012-.287.102.143.102.177.012.287zm-3.375 1.609c-.114-.088-.114-.121.022-.265.045.055.034.133-.022.265zm-.712 1.115a.211.211 0 01-.011.254c-.102-.166-.102-.166.011-.254zM14.62 22.16c.011-.022.034-.044.034-.077.011-.089.011-.089.113-.078-.011.155-.011.155-.147.155zM1.061 23.815c.023-.11.046-.21.068-.31.057.111.023.277-.068.31zm11.776-13.512c-.012.088-.068.121-.147.165-.012-.132.09-.132.147-.165.01.01 0 0 0 0zM34.309 4.39c.101-.01.192-.032.294-.032 0 .01.011.022.011.033a2.7 2.7 0 01-.294.044c-.011-.022-.011-.033-.011-.044zM4.854 11.142c-.101-.11.08-.166.023-.265.011 0 .023-.011.034-.011.034.022.09.044.09.066 0 .033-.033.077-.056.11a.161.161 0 01-.09.1zm.656-1.379c-.046.066-.08.121-.114.177-.011.022-.045.01-.068.022-.01-.022-.01-.044-.01-.067 0-.11.056-.132.191-.132zm.428-1.188c-.023.078-.034.144-.057.232-.09-.1-.079-.176.034-.254 0 .022.012.022.023.022zm1.581-3.509c.045-.01.102-.022.181-.033a1.31 1.31 0 01-.102.166.52.52 0 00-.079-.133zm-1.14 2.483c-.046-.077-.034-.133.079-.177-.023.066-.034.122-.046.177H6.38z"/></g></svg>