<svg fill="none" height="20" viewBox="0 0 28 20" width="28" xmlns="http://www.w3.org/2000/svg"><path d="m26 0h-24c-.53043 0-1.039141.210714-1.414214.585786-.375072.375073-.585786.883784-.585786 1.414214v16c0 .5304.210714 1.0391.585786 1.4142.375073.3751.883784.5858 1.414214.5858h24c.5304 0 1.0391-.2107 1.4142-.5858s.5858-.8838.5858-1.4142v-16c0-.53043-.2107-1.039141-.5858-1.414214-.3751-.375072-.8838-.585786-1.4142-.585786zm-2.2 2-9.8 6.78-9.8-6.78zm-21.8 16v-15.09l11.43 7.91c.1674.1161.3663.1784.57.1784s.4026-.0623.57-.1784l11.43-7.91v15.09z" fill="#000"/></svg>