<svg fill="none" height="32" viewBox="0 0 32 32" width="32" xmlns="http://www.w3.org/2000/svg"><g fill="#000"><path clip-rule="evenodd" d="m5.356 23.788c.20759.2084.36667.46.46588.7369.09922.2769.13613.5723.10812.8651-.14056 1.3552-.40705 2.6943-.796 4 2.79-.646 4.494-1.394 5.268-1.786.439-.2224.9446-.275 1.42-.148 1.3629.3633 2.7675.5462 4.178.544 7.992 0 14-5.614 14-12 0-6.384-6.008-12-14-12s-14 5.616-14 12c0 2.936 1.234 5.66 3.356 7.788zm-.986 7.81c-.47386.0939-.94926.18-1.426.258-.4.064-.704-.352-.546-.724.17758-.4188.34035-.8437.488-1.274l.006-.02c.496-1.44.9-3.096 1.048-4.638-2.454-2.46-3.94-5.68-3.94-9.2 0-7.732 7.164-14 16-14s16 6.268 16 14-7.164 14-16 14c-1.5847.0021-3.1628-.2036-4.694-.612-1.04.526-3.278 1.484-6.936 2.21z" fill-rule="evenodd"/><path d="m12.9286 10.4408c.4524.619.9841 1.4127 1.5952 2.381.1508.2539.127.5674-.0714.9404-.0635.127-.254.4802-.5714 1.0596.0634.0952.1369.1944.2202.2976.0833.1031.1726.2123.2678.3274.0953.115.1985.2321.3096.3511.1111.1191.2281.2441.3512.375.123.131.2519.2639.3869.3989.6984.6984 1.2777 1.2142 1.7381 1.5476.5158-.3016.869-.5 1.0595-.5953.1984-.1111.3889-.1666.5714-.1666.1429 0 .2659.0317.3691.0952.7063.4286 1.5079.9603 2.4047 1.5952.1588.127.254.2937.2857.5.0238.2143-.0436.4445-.2023.6905-.0635.0953-.1866.254-.3691.4762-.1667.2064-.4186.4683-.7559.7857-.3373.3175-.6131.4762-.8274.4762h-.0238c-.8175-.0317-1.7262-.3532-2.7262-.9643s-2.0953-1.5079-3.2857-2.6904c-2.3731-2.381-3.5913-4.385-3.6548-6.012 0-.2142.1587-.496.4762-.8452.3095-.3333.5675-.5833.7738-.75.2063-.1587.373-.2817.5-.369.1667-.1191.3611-.1786.5833-.1786.254 0 .4524.0913.5953.2738z"/></g></svg>