<svg fill="none" height="32" viewBox="0 0 32 32" width="32" xmlns="http://www.w3.org/2000/svg"><path d="m7.80952 1.17449c1.20635 1.6508 2.62438 3.7672 4.25398 6.34921.4021.67725.3386 1.51323-.1905 2.5079-.1693.3387-.6772 1.2805-1.5238 2.8254.1693.254.3651.5186.5873.7937s.4603.5661.7143.873.5291.619.8254.9365.6085.6508.9365 1 .672.7037 1.0317 1.0635c1.8625 1.8624 3.4075 3.2381 4.635 4.127 1.3756-.8042 2.3174-1.3333 2.8254-1.5873.5291-.2963 1.037-.4445 1.5238-.4445.3809 0 .709.0847.9841.254 1.8836 1.1429 4.0212 2.5609 6.4127 4.254.4233.3386.6772.783.7619 1.3333.0635.5714-.1164 1.1852-.5397 1.8413-.1693.2539-.4973.6772-.9841 1.2698-.4445.5503-1.1164 1.2487-2.0159 2.0953-.8995.8465-1.6349 1.2698-2.2063 1.2698h-.0635c-2.1799-.0847-4.6032-.9418-7.2699-2.5714-2.6666-1.6297-5.5873-4.0212-8.76187-7.1746-6.32804-6.3492-9.576718-11.6932-9.74603-16.03178 0-.57143.42328-1.32275 1.26984-2.25397.8254-.88889 1.51323-1.55555 2.06349-2 .55027-.42328.99471-.75132 1.33334-.984124.44444-.31746.96296-.47619 1.55555-.47619.67725 0 1.20635.243386 1.5873.730154zm-2.03174 1.30159c-.8254.59259-1.62963 1.28043-2.4127 2.06349-.76191.76191-1.20635 1.32276-1.33333 1.68254.16931 3.80949 3.21164 8.66669 9.12695 14.57139 5.9154 5.9048 10.7884 8.963 14.6191 9.1746.3174-.1269.8571-.582 1.619-1.365.7619-.7831 1.4498-1.5979 2.0635-2.4445.0635-.0846.1058-.164.127-.2381.0212-.074.0212-.1428 0-.2063-2.4339-1.6931-4.4868-3.0688-6.1587-4.127-.1693 0-.381.0635-.6349.1905-.0847.0423-.4233.2328-1.0159.5714s-1.1746.6561-1.7461.9524l-1.0476.6349-1.0476-.6984c-1.3333-.9101-2.9735-2.3598-4.9206-4.3492-1.9048-1.9259-3.33336-3.5662-4.28574-4.9207l-.76191-.9841.63493-1.1111c.78306-1.418 1.291-2.33862 1.52382-2.7619.127-.25397.1905-.46561.1905-.63492-.71962-1.14285-1.41803-2.22751-2.09528-3.25397-.67725-1.02645-1.32275-1.98412-1.93651-2.87301h-.06349c-.16931 0-.31746.04233-.44444.12698z" fill="#000"/></svg>