<svg fill="none" height="17" viewBox="0 0 16 17" width="16" xmlns="http://www.w3.org/2000/svg"><path d="m7.13679.00000002c1.36528-.00002939 2.70191.39158098 3.85131 1.12836998 1.1494.73678 2.0633 1.78782 2.6333 3.02841.5701 1.24058.7722 2.61865.5826 3.97069s-.7631 2.62133-1.6525 3.65723l3.4485 3.4484-.7762.7762-3.4496-3.4495c-.874.7474-1.91577 1.2726-3.0365 1.5307-1.12074.2581-2.28726.2415-3.4002-.0484-1.11293-.2899-2.13932-.8445-2.99175-1.6165-.85243-.7721-1.505635-1.7387-1.90399-2.81755-.3983553-1.07888-.5300562-2.23805-.3838864-3.3788.1461694-1.14075.5658794-2.22926 1.2233864-3.17285.6575-.94358 1.53332-1.71428 2.55286-2.246448s2.1526-.81004044 3.30267-.80995198zm0 1.09787998c-1.60147 0-3.13735.63619-4.26976 1.7686s-1.7686 2.66829-1.7686 4.26976.63619 3.13736 1.7686 4.26976 2.66829 1.7686 4.26976 1.7686 3.13731-.6362 4.26981-1.7686c1.1324-1.1324 1.7685-2.66829 1.7685-4.26976s-.6361-3.13735-1.7685-4.26976c-1.1325-1.13241-2.66834-1.7686-4.26981-1.7686z" fill="#000"/></svg>